<svg width="17" height="18" viewBox="0 0 17 18" fill="none" xmlns="http://www.w3.org/2000/svg">
<circle cx="8.08133" cy="8.9993" r="8.0618" fill="#1FD1F9"/>
<path d="M7.90687 8.45542L8.07596 8.622L8.24559 8.45595C8.42155 8.28366 9.97398 6.75802 10.288 6.2472C10.492 5.91534 10.583 5.58222 10.583 5.16712C10.5829 4.15727 9.82422 3.62891 9.07474 3.62891C8.66229 3.62891 8.31965 3.77074 8.07843 4.03516C7.89382 3.8332 7.58356 3.62891 7.08405 3.62891C6.19796 3.62891 5.5791 4.26145 5.5791 5.16712C5.5791 5.58043 5.67061 5.9135 5.87572 6.2472C6.1895 6.75778 7.73202 8.28313 7.90687 8.45542Z" fill="white"/>
<path d="M8.25516 9.54744L8.08607 9.38086L7.91644 9.54691C7.74048 9.7192 6.1881 11.2448 5.87408 11.7557C5.67008 12.0875 5.5791 12.4207 5.5791 12.8357C5.5791 13.8456 6.33781 14.374 7.08729 14.374C7.49964 14.374 7.84228 14.2321 8.08355 13.9676C8.26812 14.1697 8.57837 14.374 9.07793 14.374C9.96402 14.374 10.5829 13.7414 10.5829 12.8357C10.5829 12.4225 10.4914 12.0895 10.2863 11.7557C9.97248 11.2451 8.43001 9.71973 8.25516 9.54744Z" fill="white"/>
<path d="M13.0497 9.00319C13.2517 8.81862 13.456 8.50837 13.456 8.00881C13.456 7.12277 12.8234 6.50391 11.9178 6.50391C11.5045 6.50391 11.1714 6.59542 10.8377 6.80053C10.3272 7.11431 8.80176 8.65677 8.62947 8.83167L8.46289 9.00077L8.62894 9.1704C8.80123 9.34636 10.3269 10.8988 10.8377 11.2128C11.1695 11.4168 11.5026 11.5077 11.9178 11.5077C12.9277 11.5077 13.456 10.7491 13.456 9.99959C13.456 9.5871 13.3141 9.24446 13.0497 9.00319Z" fill="white"/>
<path d="M7.53354 9.17997L7.70013 9.01087L7.53408 8.84124C7.36179 8.66528 5.83619 7.11286 5.32537 6.79888C4.99361 6.59488 4.66044 6.50391 4.24524 6.50391C3.2354 6.50395 2.70703 7.26262 2.70703 8.0121C2.70703 8.4245 2.84891 8.76714 3.11339 9.00841C2.91137 9.19297 2.70703 9.50323 2.70703 10.0028C2.70703 10.8888 3.33957 11.5077 4.24524 11.5077C4.65861 11.5077 4.99168 11.4162 5.32533 11.2111C5.83595 10.8973 7.3613 9.35482 7.53354 9.17997Z" fill="white"/>
</svg>
