<svg width="17" height="18" viewBox="0 0 17 18" fill="none" xmlns="http://www.w3.org/2000/svg">
<circle cx="8.35086" cy="8.9993" r="8.0618" fill="#721FF9"/>
<path d="M8.35088 13.6067C8.30427 13.6067 8.25768 13.5945 8.21593 13.5701C8.17059 13.5437 7.0932 12.9108 6.00037 11.9572C5.35265 11.392 4.83562 10.8315 4.46366 10.2911C3.98233 9.59192 3.74028 8.91936 3.74419 8.29212C3.74876 7.56224 4.00715 6.87584 4.47182 6.35934C4.94433 5.83414 5.57491 5.54492 6.24744 5.54492C7.10935 5.54492 7.89737 6.03339 8.3509 6.80717C8.80442 6.0334 9.59244 5.54492 10.4544 5.54492C11.0897 5.54492 11.6959 5.80588 12.1613 6.27975C12.6721 6.79976 12.9623 7.53451 12.9576 8.29557C12.9536 8.92173 12.7071 9.59327 12.2247 10.2915C11.8516 10.8316 11.3352 11.3919 10.6901 11.9569C9.60123 12.9104 8.53158 13.5433 8.48658 13.5697C8.44463 13.5944 8.39774 13.6067 8.35088 13.6067Z" fill="white"/>
</svg>
