<svg width="29" height="29" viewBox="0 0 29 29" fill="none" xmlns="http://www.w3.org/2000/svg">
<g clip-path="url(#clip0_1503_78325)">
<path d="M27.8919 22.9772C26.9494 22.0022 26.0639 20.9774 25.2992 19.8475C24.6976 18.9567 24.0768 18.0715 23.7067 17.0387C22.5427 13.8014 21.471 10.5296 20.3778 7.26587C20.253 6.87588 20.0553 6.51556 19.7962 6.20576C18.8661 5.11436 17.1897 4.74441 16.0072 6.0236C15.781 6.26836 15.5349 6.49306 15.2971 6.72579C15.0815 6.94464 14.7932 7.06825 14.4924 7.07086C14.07 7.07808 13.6461 7.09734 13.2261 7.10055C12.4498 7.10697 11.9682 6.61103 11.9567 5.8005C11.9418 4.79951 11.9287 3.79852 11.9174 2.79754C11.9202 2.51739 11.8861 2.23818 11.8159 1.96775C11.6916 1.51308 11.4554 1.10024 11.1309 0.770161C10.8063 0.440085 10.4047 0.204256 9.96584 0.0860749C9.52696 -0.032106 9.06608 -0.0285323 8.62893 0.0964392C8.19179 0.221411 7.79358 0.463431 7.47379 0.798501C5.28811 3.04551 3.12704 5.32461 0.956755 7.59088C0.70371 7.85181 0.493925 8.15472 0.335917 8.48727C-0.295705 9.83548 -0.0272126 11.3049 1.06216 12.4412C5.76432 17.3472 10.4662 22.2529 15.1679 27.1583C15.2448 27.2385 15.3471 27.3075 15.4071 27.4688H1.06832C0.953693 27.4688 0.837506 27.4688 0.723645 27.4745C0.539973 27.4859 0.367268 27.5694 0.240276 27.7083C0.113284 27.8472 0.041433 28.0311 0.0391904 28.223C0.0369479 28.4149 0.10449 28.6006 0.228199 28.7427C0.351908 28.8848 0.522601 28.9727 0.705952 28.9888C0.820582 29 0.936751 28.9976 1.05138 28.9976H25.4669C25.5923 28.9976 25.717 28.9976 25.8416 28.992C27.0802 28.9117 28.0119 28.3067 28.605 27.1767C29.3259 25.8012 29.0474 24.173 27.8919 22.9772ZM11.095 14.5012C11.2889 12.4605 11.472 10.4189 11.659 8.37733C11.6636 8.32838 11.6759 8.28022 11.6889 8.21201C12.7045 8.83877 13.8 8.6229 14.8725 8.56752C15.4148 8.53944 15.8772 8.25374 16.2765 7.87255C16.5329 7.62913 16.7848 7.3825 17.032 7.13265C17.5344 6.62788 18.0913 6.62627 18.606 7.13265C18.784 7.3161 18.9161 7.54234 18.9907 7.7915C19.3069 8.74568 19.6208 9.69985 19.9501 10.6484C20.0208 10.8522 19.9677 10.9173 19.7908 10.9887C18.9445 11.3305 18.0983 11.6877 17.252 12.0383C16.7866 12.2317 16.5834 12.6242 16.7319 13.0487C16.8858 13.4909 17.3028 13.6674 17.7736 13.4756C18.6122 13.1338 19.4508 12.7919 20.2816 12.4324C20.4809 12.3457 20.5386 12.3995 20.5994 12.5873C20.8025 13.2124 21.0094 13.8351 21.2348 14.4515C21.3118 14.6649 21.2618 14.7404 21.0671 14.8158C20.484 15.0413 19.9077 15.2885 19.33 15.53C18.8561 15.7282 18.6576 16.1431 18.8245 16.5733C18.9853 16.9882 19.4038 17.1503 19.8623 16.9641C20.4424 16.7292 21.0207 16.4885 21.5972 16.2418C21.7449 16.1785 21.828 16.1616 21.8903 16.3614C22.635 18.8412 24.0444 20.8948 25.6931 22.7935C25.7116 22.8151 25.727 22.8408 25.807 22.954C25.4815 22.954 25.2261 22.954 24.9707 22.954C23.1387 22.9871 21.3066 23.0224 19.4746 23.0599C19.3646 23.0679 19.2542 23.0511 19.1509 23.0107C19.0476 22.9702 18.9539 22.9071 18.8761 22.8256C18.6799 22.6193 18.4814 22.4163 18.2844 22.2109L11.2835 14.9081C11.1773 14.7933 11.0804 14.6962 11.095 14.5012ZM3.83638 6.75146C5.37043 5.16732 6.89293 3.57115 8.42082 1.98059C8.84703 1.53761 9.31095 1.41884 9.7764 1.64916C10.2418 1.87948 10.4326 2.26789 10.4511 2.77988C10.4976 4.31023 10.4392 5.84209 10.2765 7.36377C10.0926 9.19347 9.94103 11.0272 9.77486 12.8593C9.76409 12.9765 9.78254 13.1 9.70946 13.2084C9.60713 13.1803 9.5556 13.0896 9.49098 13.0206C7.61073 11.0614 5.72996 9.10306 3.84868 7.14549C3.70559 6.99623 3.67405 6.91999 3.83638 6.75146ZM25.6808 27.4737C25.0569 27.4793 24.4329 27.4737 23.809 27.4737H21.9665C20.7571 27.4737 19.5477 27.4672 18.3383 27.4737C18.089 27.481 17.841 27.4335 17.6103 27.3344C17.3797 27.2353 17.1717 27.0867 16.9997 26.8983C12.0287 21.705 7.05603 16.5155 2.08153 11.3297C1.26911 10.4823 1.26603 9.44787 2.07152 8.60123C2.24693 8.41746 2.42003 8.11973 2.61467 8.09967C2.80931 8.07961 2.98164 8.40944 3.1532 8.5916C7.85178 13.4885 12.5483 18.3867 17.2428 23.2862C17.3651 23.4138 17.4797 23.5486 17.5943 23.6826C18.1083 24.2821 18.7422 24.6087 19.5177 24.5943C21.9649 24.5493 24.4114 24.5044 26.8579 24.445C27.1125 24.4386 27.2356 24.5253 27.3356 24.7556C27.4673 25.0462 27.5263 25.3668 27.5072 25.6876C27.4881 26.0084 27.3914 26.3189 27.2262 26.5902C27.061 26.8616 26.8327 27.0849 26.5624 27.2393C26.2922 27.3938 25.9889 27.4744 25.6808 27.4737Z" fill="#0AEABF"/>
<path d="M25.6807 27.4725C25.0568 27.4781 24.4329 27.4725 23.8089 27.4725H21.9664C20.757 27.4725 19.5476 27.4661 18.3382 27.4725C18.0889 27.4798 17.8409 27.4324 17.6103 27.3333C17.3797 27.2341 17.1716 27.0855 16.9996 26.8971C12.0287 21.7039 7.05596 16.5144 2.08146 11.3286C1.26904 10.4812 1.26595 9.44673 2.07145 8.60009C2.24685 8.41632 2.41996 8.11859 2.6146 8.09853C2.80924 8.07847 2.98157 8.4083 3.15313 8.59047C7.8517 13.4873 12.5482 18.3855 17.2427 23.2851C17.365 23.4127 17.4796 23.5475 17.5943 23.6815C18.1082 24.281 18.7421 24.6076 19.5176 24.5931C21.9649 24.5482 24.4113 24.5033 26.8578 24.4439C27.1125 24.4375 27.2356 24.5241 27.3356 24.7544C27.4672 25.045 27.5263 25.3657 27.5071 25.6865C27.488 26.0073 27.3913 26.3178 27.2261 26.5891C27.0609 26.8604 26.8326 27.0837 26.5624 27.2382C26.2922 27.3927 25.9889 27.4733 25.6807 27.4725Z" fill="#0E8170"/>
<path d="M10.2766 7.36269C10.0927 9.19239 9.94116 11.0261 9.77498 12.8582C9.76421 12.9754 9.78267 13.099 9.70958 13.2073C9.60726 13.1792 9.55573 13.0885 9.4911 13.0195C7.61085 11.0604 5.73009 9.10198 3.84881 7.14441C3.70572 6.99515 3.67418 6.91891 3.83651 6.75038C5.37056 5.16624 6.89306 3.57007 8.42095 1.97951C8.84716 1.53653 9.31108 1.41776 9.77652 1.64808C10.242 1.8784 10.4328 2.26681 10.4512 2.7788C10.4977 4.30915 10.4393 5.84101 10.2766 7.36269Z" fill="#036556"/>
<path d="M25.8092 22.9507C25.4838 22.9507 25.2284 22.9507 24.973 22.9507C23.1409 22.9839 21.3089 23.0192 19.4768 23.0567C19.3668 23.0646 19.2564 23.0479 19.1532 23.0074C19.0499 22.967 18.9562 22.9039 18.8783 22.8223C18.6821 22.6161 18.4836 22.4131 18.2867 22.2076L11.2858 14.9049C11.1773 14.7925 11.0765 14.6954 11.095 14.5036C11.2888 12.4628 11.472 10.4213 11.6589 8.37972C11.6635 8.33077 11.6758 8.28261 11.6889 8.2144C12.7044 8.84116 13.8 8.62529 14.8724 8.56991C15.4148 8.54183 15.8772 8.25613 16.2764 7.87495C16.5329 7.63152 16.7847 7.38489 17.0319 7.13504C17.5343 6.63027 18.0913 6.62866 18.606 7.13504C18.784 7.31849 18.9161 7.54473 18.9906 7.79389C19.3068 8.74807 19.6207 9.70224 19.95 10.6508C20.0208 10.8546 19.9677 10.9196 19.7907 10.9911C18.9445 11.3329 18.0982 11.69 17.2519 12.0407C16.7865 12.2341 16.5834 12.6266 16.7319 13.0511C16.8857 13.4933 17.3027 13.6698 17.7736 13.478C18.6121 13.1361 19.4507 12.7943 20.2816 12.4348C20.4808 12.3481 20.5385 12.4019 20.5993 12.5896C20.8024 13.2148 21.0094 13.8375 21.2348 14.4539C21.3117 14.6673 21.2617 14.7428 21.0671 14.8182C20.4839 15.0437 19.9077 15.2909 19.3299 15.5324C18.856 15.7306 18.6575 16.1455 18.8245 16.5757C18.9852 16.9906 19.4038 17.1527 19.8623 16.9665C20.4424 16.7316 21.0206 16.4909 21.5971 16.2442C21.7448 16.1808 21.8279 16.164 21.8903 16.3638C22.635 18.8435 24.0444 20.8971 25.6931 22.7959C25.7138 22.8143 25.7292 22.84 25.8092 22.9507Z" fill="#036556"/>
<path d="M4.46795 25.2697C3.25933 25.2697 2.04992 25.2697 0.841303 25.2697C0.362778 25.2697 0.047359 24.9647 0.0412043 24.5202C0.0370036 24.3282 0.103077 24.1417 0.225987 23.9988C0.348897 23.8558 0.519419 23.767 0.702838 23.7506C0.76977 23.7441 0.836692 23.7441 0.904393 23.7441C3.29343 23.7441 5.6822 23.7441 8.07072 23.7441C8.58156 23.7441 8.89006 24.0001 8.92238 24.4359C8.95854 24.9174 8.65003 25.2657 8.15304 25.2689C6.99904 25.2753 5.85044 25.2689 4.69875 25.2689L4.46795 25.2697Z" fill="#0AEABF"/>
</g>
<defs>
<clipPath id="clip0_1503_78325">
<rect width="29" height="29" fill="white"/>
</clipPath>
</defs>
</svg>
