<svg width="319" height="270" viewBox="0 0 319 270" fill="none" xmlns="http://www.w3.org/2000/svg">
<mask id="mask0_1639_305013" style="mask-type:alpha" maskUnits="userSpaceOnUse" x="0" y="0" width="319" height="270">
<ellipse cx="159.838" cy="134.757" rx="159.162" ry="134.644" fill="url(#paint0_radial_1639_305013)"/>
</mask>
<g mask="url(#mask0_1639_305013)">
<g style="mix-blend-mode:overlay">
<g style="mix-blend-mode:overlay">
<path d="M52.1757 219.973H38.4336V233.656H52.1757V219.973Z" stroke="#18D2AF" stroke-miterlimit="10"/>
<path d="M24.6913 219.973H10.9492V233.656H24.6913V219.973Z" stroke="#18D2AF" stroke-miterlimit="10"/>
<path d="M38.4335 219.973H24.6914V233.656H38.4335V219.973Z" stroke="#18D2AF" stroke-miterlimit="10"/>
<path d="M65.9287 219.973H52.1865V233.656H65.9287V219.973Z" stroke="#18D2AF" stroke-miterlimit="10"/>
<path d="M79.6718 219.973H65.9297V233.656H79.6718V219.973Z" stroke="#18D2AF" stroke-miterlimit="10"/>
<path d="M93.412 219.973H79.6699V233.656H93.412V219.973Z" stroke="#18D2AF" stroke-miterlimit="10"/>
<path d="M10.9481 219.973H-2.79395V233.656H10.9481V219.973Z" stroke="#18D2AF" stroke-miterlimit="10"/>
<path d="M217.123 219.973H203.381V233.656H217.123V219.973Z" stroke="#18D2AF" stroke-miterlimit="10"/>
<path d="M189.639 219.973H175.896V233.656H189.639V219.973Z" stroke="#18D2AF" stroke-miterlimit="10"/>
<path d="M203.381 219.973H189.639V233.656H203.381V219.973Z" stroke="#18D2AF" stroke-miterlimit="10"/>
<path d="M230.866 219.973H217.124V233.656H230.866V219.973Z" stroke="#18D2AF" stroke-miterlimit="10"/>
<path d="M244.619 219.973H230.877V233.656H244.619V219.973Z" stroke="#18D2AF" stroke-miterlimit="10"/>
<path d="M134.649 219.973H120.907V233.656H134.649V219.973Z" stroke="#18D2AF" stroke-miterlimit="10"/>
<path d="M175.888 219.973H162.146V233.656H175.888V219.973Z" stroke="#18D2AF" stroke-miterlimit="10"/>
<path d="M107.167 219.973H93.4248V233.656H107.167V219.973Z" stroke="#18D2AF" stroke-miterlimit="10"/>
<path d="M120.909 219.973H107.167V233.656H120.909V219.973Z" stroke="#18D2AF" stroke-miterlimit="10"/>
<path d="M148.402 219.973H134.66V233.656H148.402V219.973Z" stroke="#18D2AF" stroke-miterlimit="10"/>
<path d="M162.145 219.973H148.403V233.656H162.145V219.973Z" stroke="#18D2AF" stroke-miterlimit="10"/>
<path d="M10.9481 55.7891H-2.79395V69.4729H10.9481V55.7891Z" stroke="#18D2AF" stroke-miterlimit="10"/>
<path d="M258.361 219.973H244.619V233.656H258.361V219.973Z" stroke="#18D2AF" stroke-miterlimit="10"/>
<path d="M285.856 42.1152H272.114V55.799H285.856V42.1152Z" stroke="#18D2AF" stroke-miterlimit="10"/>
<path d="M272.103 42.1152H258.361V55.799H272.103V42.1152Z" stroke="#18D2AF" stroke-miterlimit="10"/>
<path d="M244.619 42.1152H230.877V55.799H244.619V42.1152Z" stroke="#18D2AF" stroke-miterlimit="10"/>
<path d="M258.361 42.1152H244.619V55.799H258.361V42.1152Z" stroke="#18D2AF" stroke-miterlimit="10"/>
<path d="M217.123 42.1152H203.381V55.799H217.123V42.1152Z" stroke="#18D2AF" stroke-miterlimit="10"/>
<path d="M230.866 42.1152H217.124V55.799H230.866V42.1152Z" stroke="#18D2AF" stroke-miterlimit="10"/>
<path d="M327.093 42.1152H313.351V55.799H327.093V42.1152Z" stroke="#18D2AF" stroke-miterlimit="10"/>
<path d="M299.597 42.1152H285.854V55.799H299.597V42.1152Z" stroke="#18D2AF" stroke-miterlimit="10"/>
<path d="M313.342 42.1152H299.6V55.799H313.342V42.1152Z" stroke="#18D2AF" stroke-miterlimit="10"/>
<path d="M24.6913 55.7891H10.9492V69.4729H24.6913V55.7891Z" stroke="#18D2AF" stroke-miterlimit="10"/>
<path d="M299.597 219.973H285.854V233.656H299.597V219.973Z" stroke="#18D2AF" stroke-miterlimit="10"/>
<path d="M285.856 219.973H272.114V233.656H285.856V219.973Z" stroke="#18D2AF" stroke-miterlimit="10"/>
<path d="M272.101 219.973H258.359V233.656H272.101V219.973Z" stroke="#18D2AF" stroke-miterlimit="10"/>
<path d="M327.093 219.973H313.351V233.656H327.093V219.973Z" stroke="#18D2AF" stroke-miterlimit="10"/>
<path d="M313.342 219.973H299.6V233.656H313.342V219.973Z" stroke="#18D2AF" stroke-miterlimit="10"/>
<path d="M203.381 206.289H189.639V219.973H203.381V206.289Z" stroke="#18D2AF" stroke-miterlimit="10"/>
<path d="M148.402 206.289H134.66V219.973H148.402V206.289Z" stroke="#18D2AF" stroke-miterlimit="10"/>
<path d="M134.649 206.289H120.907V219.973H134.649V206.289Z" stroke="#18D2AF" stroke-miterlimit="10"/>
<path d="M189.639 206.289H175.896V219.973H189.639V206.289Z" stroke="#18D2AF" stroke-miterlimit="10"/>
<path d="M175.888 206.289H162.146V219.973H175.888V206.289Z" stroke="#18D2AF" stroke-miterlimit="10"/>
<path d="M107.167 206.289H93.4248V219.973H107.167V206.289Z" stroke="#18D2AF" stroke-miterlimit="10"/>
<path d="M65.9287 206.289H52.1865V219.973H65.9287V206.289Z" stroke="#18D2AF" stroke-miterlimit="10"/>
<path d="M79.6718 206.289H65.9297V219.973H79.6718V206.289Z" stroke="#18D2AF" stroke-miterlimit="10"/>
<path d="M203.381 42.1152H189.639V55.799H203.381V42.1152Z" stroke="#18D2AF" stroke-miterlimit="10"/>
<path d="M93.412 206.289H79.6699V219.973H93.412V206.289Z" stroke="#18D2AF" stroke-miterlimit="10"/>
<path d="M120.909 206.289H107.167V219.973H120.909V206.289Z" stroke="#18D2AF" stroke-miterlimit="10"/>
<path d="M313.342 206.289H299.6V219.973H313.342V206.289Z" stroke="#18D2AF" stroke-miterlimit="10"/>
<path d="M327.093 206.289H313.351V219.973H327.093V206.289Z" stroke="#18D2AF" stroke-miterlimit="10"/>
<path d="M52.1757 206.289H38.4336V219.973H52.1757V206.289Z" stroke="#18D2AF" stroke-miterlimit="10"/>
<path d="M299.597 206.289H285.854V219.973H299.597V206.289Z" stroke="#18D2AF" stroke-miterlimit="10"/>
<path d="M285.856 206.289H272.114V219.973H285.856V206.289Z" stroke="#18D2AF" stroke-miterlimit="10"/>
<path d="M217.123 206.289H203.381V219.973H217.123V206.289Z" stroke="#18D2AF" stroke-miterlimit="10"/>
<path d="M230.866 206.289H217.124V219.973H230.866V206.289Z" stroke="#18D2AF" stroke-miterlimit="10"/>
<path d="M38.4335 55.7891H24.6914V69.4729H38.4335V55.7891Z" stroke="#18D2AF" stroke-miterlimit="10"/>
<path d="M258.361 206.289H244.619V219.973H258.361V206.289Z" stroke="#18D2AF" stroke-miterlimit="10"/>
<path d="M272.103 206.289H258.361V219.973H272.103V206.289Z" stroke="#18D2AF" stroke-miterlimit="10"/>
<path d="M162.145 206.289H148.403V219.973H162.145V206.289Z" stroke="#18D2AF" stroke-miterlimit="10"/>
<path d="M38.4335 206.289H24.6914V219.973H38.4335V206.289Z" stroke="#18D2AF" stroke-miterlimit="10"/>
<path d="M10.9481 206.289H-2.79395V219.973H10.9481V206.289Z" stroke="#18D2AF" stroke-miterlimit="10"/>
<path d="M24.6913 206.289H10.9492V219.973H24.6913V206.289Z" stroke="#18D2AF" stroke-miterlimit="10"/>
<path d="M244.619 206.289H230.877V219.973H244.619V206.289Z" stroke="#18D2AF" stroke-miterlimit="10"/>
<path d="M272.101 55.7891H258.359V69.4729H272.101V55.7891Z" stroke="#18D2AF" stroke-miterlimit="10"/>
<path d="M258.361 55.7891H244.619V69.4729H258.361V55.7891Z" stroke="#18D2AF" stroke-miterlimit="10"/>
<path d="M230.866 55.7891H217.124V69.4729H230.866V55.7891Z" stroke="#18D2AF" stroke-miterlimit="10"/>
<path d="M217.123 55.7891H203.381V69.4729H217.123V55.7891Z" stroke="#18D2AF" stroke-miterlimit="10"/>
<path d="M327.093 55.7891H313.351V69.4729H327.093V55.7891Z" stroke="#18D2AF" stroke-miterlimit="10"/>
<path d="M203.381 55.7891H189.639V69.4729H203.381V55.7891Z" stroke="#18D2AF" stroke-miterlimit="10"/>
<path d="M285.856 55.7891H272.114V69.4729H285.856V55.7891Z" stroke="#18D2AF" stroke-miterlimit="10"/>
<path d="M299.597 55.7891H285.854V69.4729H299.597V55.7891Z" stroke="#18D2AF" stroke-miterlimit="10"/>
<path d="M313.342 55.7891H299.6V69.4729H313.342V55.7891Z" stroke="#18D2AF" stroke-miterlimit="10"/>
<path d="M244.619 55.7891H230.877V69.4729H244.619V55.7891Z" stroke="#18D2AF" stroke-miterlimit="10"/>
<path d="M93.412 55.7891H79.6699V69.4729H93.412V55.7891Z" stroke="#18D2AF" stroke-miterlimit="10"/>
<path d="M79.6718 55.7891H65.9297V69.4729H79.6718V55.7891Z" stroke="#18D2AF" stroke-miterlimit="10"/>
<path d="M107.167 55.7891H93.4248V69.4729H107.167V55.7891Z" stroke="#18D2AF" stroke-miterlimit="10"/>
<path d="M52.1757 55.7891H38.4336V69.4729H52.1757V55.7891Z" stroke="#18D2AF" stroke-miterlimit="10"/>
<path d="M65.9287 55.7891H52.1865V69.4729H65.9287V55.7891Z" stroke="#18D2AF" stroke-miterlimit="10"/>
<path d="M134.649 55.7891H120.907V69.4729H134.649V55.7891Z" stroke="#18D2AF" stroke-miterlimit="10"/>
<path d="M175.888 55.7891H162.146V69.4729H175.888V55.7891Z" stroke="#18D2AF" stroke-miterlimit="10"/>
<path d="M162.145 55.7891H148.403V69.4729H162.145V55.7891Z" stroke="#18D2AF" stroke-miterlimit="10"/>
<path d="M189.639 55.7891H175.896V69.4729H189.639V55.7891Z" stroke="#18D2AF" stroke-miterlimit="10"/>
<path d="M148.402 55.7891H134.66V69.4729H148.402V55.7891Z" stroke="#18D2AF" stroke-miterlimit="10"/>
<path d="M120.909 55.7891H107.167V69.4729H120.909V55.7891Z" stroke="#18D2AF" stroke-miterlimit="10"/>
<path d="M38.4335 28.4316H24.6914V42.1154H38.4335V28.4316Z" stroke="#18D2AF" stroke-miterlimit="10"/>
<path d="M52.1757 28.4316H38.4336V42.1154H52.1757V28.4316Z" stroke="#18D2AF" stroke-miterlimit="10"/>
<path d="M24.6913 28.4316H10.9492V42.1154H24.6913V28.4316Z" stroke="#18D2AF" stroke-miterlimit="10"/>
<path d="M10.9481 28.4316H-2.79395V42.1154H10.9481V28.4316Z" stroke="#18D2AF" stroke-miterlimit="10"/>
<path d="M65.9287 28.4316H52.1865V42.1154H65.9287V28.4316Z" stroke="#18D2AF" stroke-miterlimit="10"/>
<path d="M120.909 28.4316H107.167V42.1154H120.909V28.4316Z" stroke="#18D2AF" stroke-miterlimit="10"/>
<path d="M134.649 28.4316H120.907V42.1154H134.649V28.4316Z" stroke="#18D2AF" stroke-miterlimit="10"/>
<path d="M79.6718 28.4316H65.9297V42.1154H79.6718V28.4316Z" stroke="#18D2AF" stroke-miterlimit="10"/>
<path d="M107.167 28.4316H93.4248V42.1154H107.167V28.4316Z" stroke="#18D2AF" stroke-miterlimit="10"/>
<path d="M148.402 28.4316H134.66V42.1154H148.402V28.4316Z" stroke="#18D2AF" stroke-miterlimit="10"/>
<path d="M93.412 28.4316H79.6699V42.1154H93.412V28.4316Z" stroke="#18D2AF" stroke-miterlimit="10"/>
<path d="M327.093 28.4316H313.351V42.1154H327.093V28.4316Z" stroke="#18D2AF" stroke-miterlimit="10"/>
<path d="M313.342 28.4316H299.6V42.1154H313.342V28.4316Z" stroke="#18D2AF" stroke-miterlimit="10"/>
<path d="M203.381 28.4316H189.639V42.1154H203.381V28.4316Z" stroke="#18D2AF" stroke-miterlimit="10"/>
<path d="M230.866 28.4316H217.124V42.1154H230.866V28.4316Z" stroke="#18D2AF" stroke-miterlimit="10"/>
<path d="M217.123 28.4316H203.381V42.1154H217.123V28.4316Z" stroke="#18D2AF" stroke-miterlimit="10"/>
<path d="M162.145 28.4316H148.403V42.1154H162.145V28.4316Z" stroke="#18D2AF" stroke-miterlimit="10"/>
<path d="M175.888 28.4316H162.146V42.1154H175.888V28.4316Z" stroke="#18D2AF" stroke-miterlimit="10"/>
<path d="M189.639 28.4316H175.896V42.1154H189.639V28.4316Z" stroke="#18D2AF" stroke-miterlimit="10"/>
<path d="M285.856 28.4316H272.114V42.1154H285.856V28.4316Z" stroke="#18D2AF" stroke-miterlimit="10"/>
<path d="M299.597 28.4316H285.854V42.1154H299.597V28.4316Z" stroke="#18D2AF" stroke-miterlimit="10"/>
<path d="M244.619 28.4316H230.877V42.1154H244.619V28.4316Z" stroke="#18D2AF" stroke-miterlimit="10"/>
<path d="M258.361 28.4316H244.619V42.1154H258.361V28.4316Z" stroke="#18D2AF" stroke-miterlimit="10"/>
<path d="M272.101 28.4316H258.359V42.1154H272.101V28.4316Z" stroke="#18D2AF" stroke-miterlimit="10"/>
<path d="M93.412 247.33H79.6699V261.014H93.412V247.33Z" stroke="#18D2AF" stroke-miterlimit="10"/>
<path d="M134.649 247.33H120.907V261.014H134.649V247.33Z" stroke="#18D2AF" stroke-miterlimit="10"/>
<path d="M120.909 247.33H107.167V261.014H120.909V247.33Z" stroke="#18D2AF" stroke-miterlimit="10"/>
<path d="M107.167 247.33H93.4248V261.014H107.167V247.33Z" stroke="#18D2AF" stroke-miterlimit="10"/>
<path d="M162.145 247.33H148.403V261.014H162.145V247.33Z" stroke="#18D2AF" stroke-miterlimit="10"/>
<path d="M148.402 247.33H134.66V261.014H148.402V247.33Z" stroke="#18D2AF" stroke-miterlimit="10"/>
<path d="M175.888 247.33H162.146V261.014H175.888V247.33Z" stroke="#18D2AF" stroke-miterlimit="10"/>
<path d="M52.1757 247.33H38.4336V261.014H52.1757V247.33Z" stroke="#18D2AF" stroke-miterlimit="10"/>
<path d="M38.4335 247.33H24.6914V261.014H38.4335V247.33Z" stroke="#18D2AF" stroke-miterlimit="10"/>
<path d="M79.6718 247.33H65.9297V261.014H79.6718V247.33Z" stroke="#18D2AF" stroke-miterlimit="10"/>
<path d="M65.9287 247.33H52.1865V261.014H65.9287V247.33Z" stroke="#18D2AF" stroke-miterlimit="10"/>
<path d="M327.093 247.33H313.351V261.014H327.093V247.33Z" stroke="#18D2AF" stroke-miterlimit="10"/>
<path d="M299.597 247.33H285.854V261.014H299.597V247.33Z" stroke="#18D2AF" stroke-miterlimit="10"/>
<path d="M272.103 247.33H258.361V261.014H272.103V247.33Z" stroke="#18D2AF" stroke-miterlimit="10"/>
<path d="M285.856 247.33H272.114V261.014H285.856V247.33Z" stroke="#18D2AF" stroke-miterlimit="10"/>
<path d="M313.342 247.33H299.6V261.014H313.342V247.33Z" stroke="#18D2AF" stroke-miterlimit="10"/>
<path d="M24.6913 247.33H10.9492V261.014H24.6913V247.33Z" stroke="#18D2AF" stroke-miterlimit="10"/>
<path d="M217.123 247.33H203.381V261.014H217.123V247.33Z" stroke="#18D2AF" stroke-miterlimit="10"/>
<path d="M203.381 247.33H189.639V261.014H203.381V247.33Z" stroke="#18D2AF" stroke-miterlimit="10"/>
<path d="M258.361 247.33H244.619V261.014H258.361V247.33Z" stroke="#18D2AF" stroke-miterlimit="10"/>
<path d="M189.639 247.33H175.896V261.014H189.639V247.33Z" stroke="#18D2AF" stroke-miterlimit="10"/>
<path d="M230.866 247.33H217.124V261.014H230.866V247.33Z" stroke="#18D2AF" stroke-miterlimit="10"/>
<path d="M244.619 247.33H230.877V261.014H244.619V247.33Z" stroke="#18D2AF" stroke-miterlimit="10"/>
<path d="M10.9481 247.33H-2.79395V261.014H10.9481V247.33Z" stroke="#18D2AF" stroke-miterlimit="10"/>
<path d="M10.9481 233.656H-2.79395V247.34H10.9481V233.656Z" stroke="#18D2AF" stroke-miterlimit="10"/>
<path d="M107.167 42.1152H93.4248V55.799H107.167V42.1152Z" stroke="#18D2AF" stroke-miterlimit="10"/>
<path d="M79.6718 42.1152H65.9297V55.799H79.6718V42.1152Z" stroke="#18D2AF" stroke-miterlimit="10"/>
<path d="M38.4335 42.1152H24.6914V55.799H38.4335V42.1152Z" stroke="#18D2AF" stroke-miterlimit="10"/>
<path d="M65.9287 42.1152H52.1865V55.799H65.9287V42.1152Z" stroke="#18D2AF" stroke-miterlimit="10"/>
<path d="M52.1757 42.1152H38.4336V55.799H52.1757V42.1152Z" stroke="#18D2AF" stroke-miterlimit="10"/>
<path d="M93.412 42.1152H79.6699V55.799H93.412V42.1152Z" stroke="#18D2AF" stroke-miterlimit="10"/>
<path d="M120.909 42.1152H107.167V55.799H120.909V42.1152Z" stroke="#18D2AF" stroke-miterlimit="10"/>
<path d="M175.888 42.1152H162.146V55.799H175.888V42.1152Z" stroke="#18D2AF" stroke-miterlimit="10"/>
<path d="M162.145 42.1152H148.403V55.799H162.145V42.1152Z" stroke="#18D2AF" stroke-miterlimit="10"/>
<path d="M134.649 42.1152H120.907V55.799H134.649V42.1152Z" stroke="#18D2AF" stroke-miterlimit="10"/>
<path d="M148.402 42.1152H134.66V55.799H148.402V42.1152Z" stroke="#18D2AF" stroke-miterlimit="10"/>
<path d="M24.6913 42.1152H10.9492V55.799H24.6913V42.1152Z" stroke="#18D2AF" stroke-miterlimit="10"/>
<path d="M10.9481 42.1152H-2.79395V55.799H10.9481V42.1152Z" stroke="#18D2AF" stroke-miterlimit="10"/>
<path d="M24.6913 233.656H10.9492V247.34H24.6913V233.656Z" stroke="#18D2AF" stroke-miterlimit="10"/>
<path d="M189.639 42.1152H175.896V55.799H189.639V42.1152Z" stroke="#18D2AF" stroke-miterlimit="10"/>
<path d="M38.4335 233.656H24.6914V247.34H38.4335V233.656Z" stroke="#18D2AF" stroke-miterlimit="10"/>
<path d="M148.402 233.656H134.66V247.34H148.402V233.656Z" stroke="#18D2AF" stroke-miterlimit="10"/>
<path d="M134.649 233.656H120.907V247.34H134.649V233.656Z" stroke="#18D2AF" stroke-miterlimit="10"/>
<path d="M120.909 233.656H107.167V247.34H120.909V233.656Z" stroke="#18D2AF" stroke-miterlimit="10"/>
<path d="M162.145 233.656H148.403V247.34H162.145V233.656Z" stroke="#18D2AF" stroke-miterlimit="10"/>
<path d="M175.888 233.656H162.146V247.34H175.888V233.656Z" stroke="#18D2AF" stroke-miterlimit="10"/>
<path d="M52.1757 233.656H38.4336V247.34H52.1757V233.656Z" stroke="#18D2AF" stroke-miterlimit="10"/>
<path d="M189.639 233.656H175.896V247.34H189.639V233.656Z" stroke="#18D2AF" stroke-miterlimit="10"/>
<path d="M65.9287 233.656H52.1865V247.34H65.9287V233.656Z" stroke="#18D2AF" stroke-miterlimit="10"/>
<path d="M107.167 233.656H93.4248V247.34H107.167V233.656Z" stroke="#18D2AF" stroke-miterlimit="10"/>
<path d="M93.412 233.656H79.6699V247.34H93.412V233.656Z" stroke="#18D2AF" stroke-miterlimit="10"/>
<path d="M79.6718 233.656H65.9297V247.34H79.6718V233.656Z" stroke="#18D2AF" stroke-miterlimit="10"/>
<path d="M299.597 233.656H285.854V247.34H299.597V233.656Z" stroke="#18D2AF" stroke-miterlimit="10"/>
<path d="M285.856 233.656H272.114V247.34H285.856V233.656Z" stroke="#18D2AF" stroke-miterlimit="10"/>
<path d="M272.101 233.656H258.359V247.34H272.101V233.656Z" stroke="#18D2AF" stroke-miterlimit="10"/>
<path d="M313.342 233.656H299.6V247.34H313.342V233.656Z" stroke="#18D2AF" stroke-miterlimit="10"/>
<path d="M203.381 233.656H189.639V247.34H203.381V233.656Z" stroke="#18D2AF" stroke-miterlimit="10"/>
<path d="M327.093 233.656H313.351V247.34H327.093V233.656Z" stroke="#18D2AF" stroke-miterlimit="10"/>
<path d="M217.123 233.656H203.381V247.34H217.123V233.656Z" stroke="#18D2AF" stroke-miterlimit="10"/>
<path d="M230.866 233.656H217.124V247.34H230.866V233.656Z" stroke="#18D2AF" stroke-miterlimit="10"/>
<path d="M258.361 233.656H244.619V247.34H258.361V233.656Z" stroke="#18D2AF" stroke-miterlimit="10"/>
<path d="M244.619 233.656H230.877V247.34H244.619V233.656Z" stroke="#18D2AF" stroke-miterlimit="10"/>
<path d="M10.9481 110.523H-2.79395V124.207H10.9481V110.523Z" stroke="#18D2AF" stroke-miterlimit="10"/>
<path d="M38.4335 110.523H24.6914V124.207H38.4335V110.523Z" stroke="#18D2AF" stroke-miterlimit="10"/>
<path d="M24.6913 110.523H10.9492V124.207H24.6913V110.523Z" stroke="#18D2AF" stroke-miterlimit="10"/>
<path d="M52.1757 110.523H38.4336V124.207H52.1757V110.523Z" stroke="#18D2AF" stroke-miterlimit="10"/>
<path d="M93.412 110.523H79.6699V124.207H93.412V110.523Z" stroke="#18D2AF" stroke-miterlimit="10"/>
<path d="M52.1757 165.248H38.4336V178.932H52.1757V165.248Z" stroke="#18D2AF" stroke-miterlimit="10"/>
<path d="M79.6718 110.523H65.9297V124.207H79.6718V110.523Z" stroke="#18D2AF" stroke-miterlimit="10"/>
<path d="M65.9287 110.523H52.1865V124.207H65.9287V110.523Z" stroke="#18D2AF" stroke-miterlimit="10"/>
<path d="M120.909 110.523H107.167V124.207H120.909V110.523Z" stroke="#18D2AF" stroke-miterlimit="10"/>
<path d="M10.9481 165.248H-2.79395V178.932H10.9481V165.248Z" stroke="#18D2AF" stroke-miterlimit="10"/>
<path d="M38.4335 165.248H24.6914V178.932H38.4335V165.248Z" stroke="#18D2AF" stroke-miterlimit="10"/>
<path d="M24.6913 165.248H10.9492V178.932H24.6913V165.248Z" stroke="#18D2AF" stroke-miterlimit="10"/>
<path d="M107.167 110.523H93.4248V124.207H107.167V110.523Z" stroke="#18D2AF" stroke-miterlimit="10"/>
<path d="M134.649 110.523H120.907V124.207H134.649V110.523Z" stroke="#18D2AF" stroke-miterlimit="10"/>
<path d="M313.342 110.523H299.6V124.207H313.342V110.523Z" stroke="#18D2AF" stroke-miterlimit="10"/>
<path d="M327.093 110.523H313.351V124.207H327.093V110.523Z" stroke="#18D2AF" stroke-miterlimit="10"/>
<path d="M299.597 110.523H285.854V124.207H299.597V110.523Z" stroke="#18D2AF" stroke-miterlimit="10"/>
<path d="M285.856 110.523H272.114V124.207H285.856V110.523Z" stroke="#18D2AF" stroke-miterlimit="10"/>
<path d="M203.381 110.523H189.639V124.207H203.381V110.523Z" stroke="#18D2AF" stroke-miterlimit="10"/>
<path d="M175.888 110.523H162.146V124.207H175.888V110.523Z" stroke="#18D2AF" stroke-miterlimit="10"/>
<path d="M162.145 110.523H148.403V124.207H162.145V110.523Z" stroke="#18D2AF" stroke-miterlimit="10"/>
<path d="M148.402 110.523H134.66V124.207H148.402V110.523Z" stroke="#18D2AF" stroke-miterlimit="10"/>
<path d="M189.639 110.523H175.896V124.207H189.639V110.523Z" stroke="#18D2AF" stroke-miterlimit="10"/>
<path d="M217.123 110.523H203.381V124.207H217.123V110.523Z" stroke="#18D2AF" stroke-miterlimit="10"/>
<path d="M258.361 110.523H244.619V124.207H258.361V110.523Z" stroke="#18D2AF" stroke-miterlimit="10"/>
<path d="M272.101 110.523H258.359V124.207H272.101V110.523Z" stroke="#18D2AF" stroke-miterlimit="10"/>
<path d="M244.619 110.523H230.877V124.207H244.619V110.523Z" stroke="#18D2AF" stroke-miterlimit="10"/>
<path d="M230.866 110.523H217.124V124.207H230.866V110.523Z" stroke="#18D2AF" stroke-miterlimit="10"/>
<path d="M189.639 96.8398H175.896V110.524H189.639V96.8398Z" stroke="#18D2AF" stroke-miterlimit="10"/>
<path d="M230.866 96.8398H217.124V110.524H230.866V96.8398Z" stroke="#18D2AF" stroke-miterlimit="10"/>
<path d="M244.619 96.8398H230.877V110.524H244.619V96.8398Z" stroke="#18D2AF" stroke-miterlimit="10"/>
<path d="M258.361 96.8398H244.619V110.524H258.361V96.8398Z" stroke="#18D2AF" stroke-miterlimit="10"/>
<path d="M217.123 96.8398H203.381V110.524H217.123V96.8398Z" stroke="#18D2AF" stroke-miterlimit="10"/>
<path d="M203.381 96.8398H189.639V110.524H203.381V96.8398Z" stroke="#18D2AF" stroke-miterlimit="10"/>
<path d="M285.856 96.8398H272.114V110.524H285.856V96.8398Z" stroke="#18D2AF" stroke-miterlimit="10"/>
<path d="M313.342 96.8398H299.6V110.524H313.342V96.8398Z" stroke="#18D2AF" stroke-miterlimit="10"/>
<path d="M65.9287 165.248H52.1865V178.932H65.9287V165.248Z" stroke="#18D2AF" stroke-miterlimit="10"/>
<path d="M299.597 96.8398H285.854V110.524H299.597V96.8398Z" stroke="#18D2AF" stroke-miterlimit="10"/>
<path d="M272.101 96.8398H258.359V110.524H272.101V96.8398Z" stroke="#18D2AF" stroke-miterlimit="10"/>
<path d="M327.093 96.8398H313.351V110.524H327.093V96.8398Z" stroke="#18D2AF" stroke-miterlimit="10"/>
<path d="M162.145 165.248H148.403V178.932H162.145V165.248Z" stroke="#18D2AF" stroke-miterlimit="10"/>
<path d="M217.123 165.248H203.381V178.932H217.123V165.248Z" stroke="#18D2AF" stroke-miterlimit="10"/>
<path d="M148.402 165.248H134.66V178.932H148.402V165.248Z" stroke="#18D2AF" stroke-miterlimit="10"/>
<path d="M189.639 165.248H175.896V178.932H189.639V165.248Z" stroke="#18D2AF" stroke-miterlimit="10"/>
<path d="M203.381 165.248H189.639V178.932H203.381V165.248Z" stroke="#18D2AF" stroke-miterlimit="10"/>
<path d="M175.888 165.248H162.146V178.932H175.888V165.248Z" stroke="#18D2AF" stroke-miterlimit="10"/>
<path d="M79.6718 165.248H65.9297V178.932H79.6718V165.248Z" stroke="#18D2AF" stroke-miterlimit="10"/>
<path d="M93.412 165.248H79.6699V178.932H93.412V165.248Z" stroke="#18D2AF" stroke-miterlimit="10"/>
<path d="M107.167 165.248H93.4248V178.932H107.167V165.248Z" stroke="#18D2AF" stroke-miterlimit="10"/>
<path d="M120.909 165.248H107.167V178.932H120.909V165.248Z" stroke="#18D2AF" stroke-miterlimit="10"/>
<path d="M134.649 165.248H120.907V178.932H134.649V165.248Z" stroke="#18D2AF" stroke-miterlimit="10"/>
<path d="M272.103 165.248H258.361V178.932H272.103V165.248Z" stroke="#18D2AF" stroke-miterlimit="10"/>
<path d="M327.093 165.248H313.351V178.932H327.093V165.248Z" stroke="#18D2AF" stroke-miterlimit="10"/>
<path d="M230.866 165.248H217.124V178.932H230.866V165.248Z" stroke="#18D2AF" stroke-miterlimit="10"/>
<path d="M299.597 165.248H285.854V178.932H299.597V165.248Z" stroke="#18D2AF" stroke-miterlimit="10"/>
<path d="M313.342 165.248H299.6V178.932H313.342V165.248Z" stroke="#18D2AF" stroke-miterlimit="10"/>
<path d="M258.361 165.248H244.619V178.932H258.361V165.248Z" stroke="#18D2AF" stroke-miterlimit="10"/>
<path d="M244.619 165.248H230.877V178.932H244.619V165.248Z" stroke="#18D2AF" stroke-miterlimit="10"/>
<path d="M285.856 165.248H272.114V178.932H285.856V165.248Z" stroke="#18D2AF" stroke-miterlimit="10"/>
<path d="M272.101 137.881H258.359V151.565H272.101V137.881Z" stroke="#18D2AF" stroke-miterlimit="10"/>
<path d="M299.597 137.881H285.854V151.565H299.597V137.881Z" stroke="#18D2AF" stroke-miterlimit="10"/>
<path d="M327.093 137.881H313.351V151.565H327.093V137.881Z" stroke="#18D2AF" stroke-miterlimit="10"/>
<path d="M313.342 137.881H299.6V151.565H313.342V137.881Z" stroke="#18D2AF" stroke-miterlimit="10"/>
<path d="M285.856 137.881H272.114V151.565H285.856V137.881Z" stroke="#18D2AF" stroke-miterlimit="10"/>
<path d="M244.619 124.197H230.877V137.881H244.619V124.197Z" stroke="#18D2AF" stroke-miterlimit="10"/>
<path d="M230.866 124.197H217.124V137.881H230.866V124.197Z" stroke="#18D2AF" stroke-miterlimit="10"/>
<path d="M203.381 124.197H189.639V137.881H203.381V124.197Z" stroke="#18D2AF" stroke-miterlimit="10"/>
<path d="M217.123 124.197H203.381V137.881H217.123V124.197Z" stroke="#18D2AF" stroke-miterlimit="10"/>
<path d="M258.361 124.197H244.619V137.881H258.361V124.197Z" stroke="#18D2AF" stroke-miterlimit="10"/>
<path d="M313.342 124.197H299.6V137.881H313.342V124.197Z" stroke="#18D2AF" stroke-miterlimit="10"/>
<path d="M327.093 124.197H313.351V137.881H327.093V124.197Z" stroke="#18D2AF" stroke-miterlimit="10"/>
<path d="M272.103 124.197H258.361V137.881H272.103V124.197Z" stroke="#18D2AF" stroke-miterlimit="10"/>
<path d="M285.856 124.197H272.114V137.881H285.856V124.197Z" stroke="#18D2AF" stroke-miterlimit="10"/>
<path d="M299.597 124.197H285.854V137.881H299.597V124.197Z" stroke="#18D2AF" stroke-miterlimit="10"/>
<path d="M230.866 137.881H217.124V151.565H230.866V137.881Z" stroke="#18D2AF" stroke-miterlimit="10"/>
<path d="M52.1757 137.881H38.4336V151.565H52.1757V137.881Z" stroke="#18D2AF" stroke-miterlimit="10"/>
<path d="M65.9287 137.881H52.1865V151.565H65.9287V137.881Z" stroke="#18D2AF" stroke-miterlimit="10"/>
<path d="M38.4335 137.881H24.6914V151.565H38.4335V137.881Z" stroke="#18D2AF" stroke-miterlimit="10"/>
<path d="M93.412 137.881H79.6699V151.565H93.412V137.881Z" stroke="#18D2AF" stroke-miterlimit="10"/>
<path d="M79.6718 137.881H65.9297V151.565H79.6718V137.881Z" stroke="#18D2AF" stroke-miterlimit="10"/>
<path d="M24.6913 137.881H10.9492V151.565H24.6913V137.881Z" stroke="#18D2AF" stroke-miterlimit="10"/>
<path d="M10.9481 137.881H-2.79395V151.565H10.9481V137.881Z" stroke="#18D2AF" stroke-miterlimit="10"/>
<path d="M175.888 137.881H162.146V151.565H175.888V137.881Z" stroke="#18D2AF" stroke-miterlimit="10"/>
<path d="M203.381 137.881H189.639V151.565H203.381V137.881Z" stroke="#18D2AF" stroke-miterlimit="10"/>
<path d="M217.123 137.881H203.381V151.565H217.123V137.881Z" stroke="#18D2AF" stroke-miterlimit="10"/>
<path d="M189.639 137.881H175.896V151.565H189.639V137.881Z" stroke="#18D2AF" stroke-miterlimit="10"/>
<path d="M189.639 124.197H175.896V137.881H189.639V124.197Z" stroke="#18D2AF" stroke-miterlimit="10"/>
<path d="M244.619 137.881H230.877V151.565H244.619V137.881Z" stroke="#18D2AF" stroke-miterlimit="10"/>
<path d="M162.145 137.881H148.403V151.565H162.145V137.881Z" stroke="#18D2AF" stroke-miterlimit="10"/>
<path d="M258.361 137.881H244.619V151.565H258.361V137.881Z" stroke="#18D2AF" stroke-miterlimit="10"/>
<path d="M148.402 137.881H134.66V151.565H148.402V137.881Z" stroke="#18D2AF" stroke-miterlimit="10"/>
<path d="M134.649 137.881H120.907V151.565H134.649V137.881Z" stroke="#18D2AF" stroke-miterlimit="10"/>
<path d="M120.909 137.881H107.167V151.565H120.909V137.881Z" stroke="#18D2AF" stroke-miterlimit="10"/>
<path d="M107.167 137.881H93.4248V151.565H107.167V137.881Z" stroke="#18D2AF" stroke-miterlimit="10"/>
<path d="M162.145 151.564H148.403V165.248H162.145V151.564Z" stroke="#18D2AF" stroke-miterlimit="10"/>
<path d="M134.649 151.564H120.907V165.248H134.649V151.564Z" stroke="#18D2AF" stroke-miterlimit="10"/>
<path d="M148.402 151.564H134.66V165.248H148.402V151.564Z" stroke="#18D2AF" stroke-miterlimit="10"/>
<path d="M189.639 151.564H175.896V165.248H189.639V151.564Z" stroke="#18D2AF" stroke-miterlimit="10"/>
<path d="M175.888 151.564H162.146V165.248H175.888V151.564Z" stroke="#18D2AF" stroke-miterlimit="10"/>
<path d="M93.412 151.564H79.6699V165.248H93.412V151.564Z" stroke="#18D2AF" stroke-miterlimit="10"/>
<path d="M65.9287 151.564H52.1865V165.248H65.9287V151.564Z" stroke="#18D2AF" stroke-miterlimit="10"/>
<path d="M79.6718 151.564H65.9297V165.248H79.6718V151.564Z" stroke="#18D2AF" stroke-miterlimit="10"/>
<path d="M203.381 151.564H189.639V165.248H203.381V151.564Z" stroke="#18D2AF" stroke-miterlimit="10"/>
<path d="M120.909 151.564H107.167V165.248H120.909V151.564Z" stroke="#18D2AF" stroke-miterlimit="10"/>
<path d="M107.167 151.564H93.4248V165.248H107.167V151.564Z" stroke="#18D2AF" stroke-miterlimit="10"/>
<path d="M217.123 151.564H203.381V165.248H217.123V151.564Z" stroke="#18D2AF" stroke-miterlimit="10"/>
<path d="M52.1757 151.564H38.4336V165.248H52.1757V151.564Z" stroke="#18D2AF" stroke-miterlimit="10"/>
<path d="M327.093 151.564H313.351V165.248H327.093V151.564Z" stroke="#18D2AF" stroke-miterlimit="10"/>
<path d="M313.342 151.564H299.6V165.248H313.342V151.564Z" stroke="#18D2AF" stroke-miterlimit="10"/>
<path d="M299.312 151.721H285.57V165.404H299.312V151.721Z" stroke="#18D2AF" stroke-miterlimit="10"/>
<path d="M230.866 151.564H217.124V165.248H230.866V151.564Z" stroke="#18D2AF" stroke-miterlimit="10"/>
<path d="M244.619 151.564H230.877V165.248H244.619V151.564Z" stroke="#18D2AF" stroke-miterlimit="10"/>
<path d="M258.361 151.564H244.619V165.248H258.361V151.564Z" stroke="#18D2AF" stroke-miterlimit="10"/>
<path d="M285.856 151.564H272.114V165.248H285.856V151.564Z" stroke="#18D2AF" stroke-miterlimit="10"/>
<path d="M272.101 151.564H258.359V165.248H272.101V151.564Z" stroke="#18D2AF" stroke-miterlimit="10"/>
<path d="M93.412 124.197H79.6699V137.881H93.412V124.197Z" stroke="#18D2AF" stroke-miterlimit="10"/>
<path d="M24.6913 124.197H10.9492V137.881H24.6913V124.197Z" stroke="#18D2AF" stroke-miterlimit="10"/>
<path d="M65.9287 124.197H52.1865V137.881H65.9287V124.197Z" stroke="#18D2AF" stroke-miterlimit="10"/>
<path d="M38.4335 124.197H24.6914V137.881H38.4335V124.197Z" stroke="#18D2AF" stroke-miterlimit="10"/>
<path d="M52.1757 124.197H38.4336V137.881H52.1757V124.197Z" stroke="#18D2AF" stroke-miterlimit="10"/>
<path d="M175.888 124.197H162.146V137.881H175.888V124.197Z" stroke="#18D2AF" stroke-miterlimit="10"/>
<path d="M79.6718 124.197H65.9297V137.881H79.6718V124.197Z" stroke="#18D2AF" stroke-miterlimit="10"/>
<path d="M162.145 124.197H148.403V137.881H162.145V124.197Z" stroke="#18D2AF" stroke-miterlimit="10"/>
<path d="M148.402 124.197H134.66V137.881H148.402V124.197Z" stroke="#18D2AF" stroke-miterlimit="10"/>
<path d="M120.909 124.197H107.167V137.881H120.909V124.197Z" stroke="#18D2AF" stroke-miterlimit="10"/>
<path d="M107.167 124.197H93.4248V137.881H107.167V124.197Z" stroke="#18D2AF" stroke-miterlimit="10"/>
<path d="M134.649 124.197H120.907V137.881H134.649V124.197Z" stroke="#18D2AF" stroke-miterlimit="10"/>
<path d="M10.9481 124.197H-2.79395V137.881H10.9481V124.197Z" stroke="#18D2AF" stroke-miterlimit="10"/>
<path d="M24.6913 151.564H10.9492V165.248H24.6913V151.564Z" stroke="#18D2AF" stroke-miterlimit="10"/>
<path d="M10.9481 151.564H-2.79395V165.248H10.9481V151.564Z" stroke="#18D2AF" stroke-miterlimit="10"/>
<path d="M38.4335 151.564H24.6914V165.248H38.4335V151.564Z" stroke="#18D2AF" stroke-miterlimit="10"/>
<path d="M148.402 192.604H134.66V206.287H148.402V192.604Z" stroke="#18D2AF" stroke-miterlimit="10"/>
<path d="M162.145 192.604H148.403V206.287H162.145V192.604Z" stroke="#18D2AF" stroke-miterlimit="10"/>
<path d="M134.649 192.604H120.907V206.287H134.649V192.604Z" stroke="#18D2AF" stroke-miterlimit="10"/>
<path d="M175.888 192.604H162.146V206.287H175.888V192.604Z" stroke="#18D2AF" stroke-miterlimit="10"/>
<path d="M203.381 192.604H189.639V206.287H203.381V192.604Z" stroke="#18D2AF" stroke-miterlimit="10"/>
<path d="M189.639 192.604H175.896V206.287H189.639V192.604Z" stroke="#18D2AF" stroke-miterlimit="10"/>
<path d="M65.9287 192.604H52.1865V206.287H65.9287V192.604Z" stroke="#18D2AF" stroke-miterlimit="10"/>
<path d="M79.6718 192.604H65.9297V206.287H79.6718V192.604Z" stroke="#18D2AF" stroke-miterlimit="10"/>
<path d="M93.412 192.604H79.6699V206.287H93.412V192.604Z" stroke="#18D2AF" stroke-miterlimit="10"/>
<path d="M120.909 192.604H107.167V206.287H120.909V192.604Z" stroke="#18D2AF" stroke-miterlimit="10"/>
<path d="M107.167 192.604H93.4248V206.287H107.167V192.604Z" stroke="#18D2AF" stroke-miterlimit="10"/>
<path d="M217.123 192.604H203.381V206.287H217.123V192.604Z" stroke="#18D2AF" stroke-miterlimit="10"/>
<path d="M313.342 192.604H299.6V206.287H313.342V192.604Z" stroke="#18D2AF" stroke-miterlimit="10"/>
<path d="M327.093 192.604H313.351V206.287H327.093V192.604Z" stroke="#18D2AF" stroke-miterlimit="10"/>
<path d="M299.597 192.604H285.854V206.287H299.597V192.604Z" stroke="#18D2AF" stroke-miterlimit="10"/>
<path d="M285.856 192.604H272.114V206.287H285.856V192.604Z" stroke="#18D2AF" stroke-miterlimit="10"/>
<path d="M230.866 192.604H217.124V206.287H230.866V192.604Z" stroke="#18D2AF" stroke-miterlimit="10"/>
<path d="M244.619 192.604H230.877V206.287H244.619V192.604Z" stroke="#18D2AF" stroke-miterlimit="10"/>
<path d="M272.101 192.604H258.359V206.287H272.101V192.604Z" stroke="#18D2AF" stroke-miterlimit="10"/>
<path d="M258.361 192.604H244.619V206.287H258.361V192.604Z" stroke="#18D2AF" stroke-miterlimit="10"/>
<path d="M52.1757 192.604H38.4336V206.287H52.1757V192.604Z" stroke="#18D2AF" stroke-miterlimit="10"/>
<path d="M38.4335 192.604H24.6914V206.287H38.4335V192.604Z" stroke="#18D2AF" stroke-miterlimit="10"/>
<path d="M10.9481 83.1562H-2.79395V96.84H10.9481V83.1562Z" stroke="#18D2AF" stroke-miterlimit="10"/>
<path d="M24.6913 192.604H10.9492V206.287H24.6913V192.604Z" stroke="#18D2AF" stroke-miterlimit="10"/>
<path d="M10.9481 192.604H-2.79395V206.287H10.9481V192.604Z" stroke="#18D2AF" stroke-miterlimit="10"/>
<path d="M24.6913 83.1562H10.9492V96.84H24.6913V83.1562Z" stroke="#18D2AF" stroke-miterlimit="10"/>
<path d="M148.402 69.4727H134.66V83.1564H148.402V69.4727Z" stroke="#18D2AF" stroke-miterlimit="10"/>
<path d="M203.381 69.4727H189.639V83.1564H203.381V69.4727Z" stroke="#18D2AF" stroke-miterlimit="10"/>
<path d="M189.639 69.4727H175.896V83.1564H189.639V69.4727Z" stroke="#18D2AF" stroke-miterlimit="10"/>
<path d="M162.145 69.4727H148.403V83.1564H162.145V69.4727Z" stroke="#18D2AF" stroke-miterlimit="10"/>
<path d="M175.888 69.4727H162.146V83.1564H175.888V69.4727Z" stroke="#18D2AF" stroke-miterlimit="10"/>
<path d="M217.123 69.4727H203.381V83.1564H217.123V69.4727Z" stroke="#18D2AF" stroke-miterlimit="10"/>
<path d="M272.101 69.4727H258.359V83.1564H272.101V69.4727Z" stroke="#18D2AF" stroke-miterlimit="10"/>
<path d="M285.856 69.4727H272.114V83.1564H285.856V69.4727Z" stroke="#18D2AF" stroke-miterlimit="10"/>
<path d="M230.866 69.4727H217.124V83.1564H230.866V69.4727Z" stroke="#18D2AF" stroke-miterlimit="10"/>
<path d="M258.361 69.4727H244.619V83.1564H258.361V69.4727Z" stroke="#18D2AF" stroke-miterlimit="10"/>
<path d="M244.619 69.4727H230.877V83.1564H244.619V69.4727Z" stroke="#18D2AF" stroke-miterlimit="10"/>
<path d="M120.909 69.4727H107.167V83.1564H120.909V69.4727Z" stroke="#18D2AF" stroke-miterlimit="10"/>
<path d="M24.6913 69.4727H10.9492V83.1564H24.6913V69.4727Z" stroke="#18D2AF" stroke-miterlimit="10"/>
<path d="M38.4335 69.4727H24.6914V83.1564H38.4335V69.4727Z" stroke="#18D2AF" stroke-miterlimit="10"/>
<path d="M134.649 69.4727H120.907V83.1564H134.649V69.4727Z" stroke="#18D2AF" stroke-miterlimit="10"/>
<path d="M10.9481 69.4727H-2.79395V83.1564H10.9481V69.4727Z" stroke="#18D2AF" stroke-miterlimit="10"/>
<path d="M52.1757 69.4727H38.4336V83.1564H52.1757V69.4727Z" stroke="#18D2AF" stroke-miterlimit="10"/>
<path d="M299.597 69.4727H285.854V83.1564H299.597V69.4727Z" stroke="#18D2AF" stroke-miterlimit="10"/>
<path d="M107.167 69.4727H93.4248V83.1564H107.167V69.4727Z" stroke="#18D2AF" stroke-miterlimit="10"/>
<path d="M79.6718 69.4727H65.9297V83.1564H79.6718V69.4727Z" stroke="#18D2AF" stroke-miterlimit="10"/>
<path d="M93.412 69.4727H79.6699V83.1564H93.412V69.4727Z" stroke="#18D2AF" stroke-miterlimit="10"/>
<path d="M65.9287 69.4727H52.1865V83.1564H65.9287V69.4727Z" stroke="#18D2AF" stroke-miterlimit="10"/>
<path d="M327.093 69.4727H313.351V83.1564H327.093V69.4727Z" stroke="#18D2AF" stroke-miterlimit="10"/>
<path d="M313.342 69.4727H299.6V83.1564H313.342V69.4727Z" stroke="#18D2AF" stroke-miterlimit="10"/>
<path d="M52.1757 178.932H38.4336V192.615H52.1757V178.932Z" stroke="#18D2AF" stroke-miterlimit="10"/>
<path d="M38.4335 178.932H24.6914V192.615H38.4335V178.932Z" stroke="#18D2AF" stroke-miterlimit="10"/>
<path d="M79.6718 178.932H65.9297V192.615H79.6718V178.932Z" stroke="#18D2AF" stroke-miterlimit="10"/>
<path d="M65.9287 178.932H52.1865V192.615H65.9287V178.932Z" stroke="#18D2AF" stroke-miterlimit="10"/>
<path d="M24.6913 178.932H10.9492V192.615H24.6913V178.932Z" stroke="#18D2AF" stroke-miterlimit="10"/>
<path d="M10.9481 178.932H-2.79395V192.615H10.9481V178.932Z" stroke="#18D2AF" stroke-miterlimit="10"/>
<path d="M93.412 178.932H79.6699V192.615H93.412V178.932Z" stroke="#18D2AF" stroke-miterlimit="10"/>
<path d="M258.361 178.932H244.619V192.615H258.361V178.932Z" stroke="#18D2AF" stroke-miterlimit="10"/>
<path d="M203.381 178.932H189.639V192.615H203.381V178.932Z" stroke="#18D2AF" stroke-miterlimit="10"/>
<path d="M217.123 178.932H203.381V192.615H217.123V178.932Z" stroke="#18D2AF" stroke-miterlimit="10"/>
<path d="M189.639 178.932H175.896V192.615H189.639V178.932Z" stroke="#18D2AF" stroke-miterlimit="10"/>
<path d="M244.619 178.932H230.877V192.615H244.619V178.932Z" stroke="#18D2AF" stroke-miterlimit="10"/>
<path d="M230.866 178.932H217.124V192.615H230.866V178.932Z" stroke="#18D2AF" stroke-miterlimit="10"/>
<path d="M120.909 178.932H107.167V192.615H120.909V178.932Z" stroke="#18D2AF" stroke-miterlimit="10"/>
<path d="M107.167 178.932H93.4248V192.615H107.167V178.932Z" stroke="#18D2AF" stroke-miterlimit="10"/>
<path d="M134.649 178.932H120.907V192.615H134.649V178.932Z" stroke="#18D2AF" stroke-miterlimit="10"/>
<path d="M148.402 178.932H134.66V192.615H148.402V178.932Z" stroke="#18D2AF" stroke-miterlimit="10"/>
<path d="M162.145 178.932H148.403V192.615H162.145V178.932Z" stroke="#18D2AF" stroke-miterlimit="10"/>
<path d="M175.888 178.932H162.146V192.615H175.888V178.932Z" stroke="#18D2AF" stroke-miterlimit="10"/>
<path d="M24.6913 96.8398H10.9492V110.524H24.6913V96.8398Z" stroke="#18D2AF" stroke-miterlimit="10"/>
<path d="M65.9287 96.8398H52.1865V110.524H65.9287V96.8398Z" stroke="#18D2AF" stroke-miterlimit="10"/>
<path d="M52.1757 96.8398H38.4336V110.524H52.1757V96.8398Z" stroke="#18D2AF" stroke-miterlimit="10"/>
<path d="M93.412 96.8398H79.6699V110.524H93.412V96.8398Z" stroke="#18D2AF" stroke-miterlimit="10"/>
<path d="M38.4335 96.8398H24.6914V110.524H38.4335V96.8398Z" stroke="#18D2AF" stroke-miterlimit="10"/>
<path d="M79.6718 96.8398H65.9297V110.524H79.6718V96.8398Z" stroke="#18D2AF" stroke-miterlimit="10"/>
<path d="M162.145 96.8398H148.403V110.524H162.145V96.8398Z" stroke="#18D2AF" stroke-miterlimit="10"/>
<path d="M107.167 96.8398H93.4248V110.524H107.167V96.8398Z" stroke="#18D2AF" stroke-miterlimit="10"/>
<path d="M148.402 96.8398H134.66V110.524H148.402V96.8398Z" stroke="#18D2AF" stroke-miterlimit="10"/>
<path d="M120.909 96.8398H107.167V110.524H120.909V96.8398Z" stroke="#18D2AF" stroke-miterlimit="10"/>
<path d="M134.649 96.8398H120.907V110.524H134.649V96.8398Z" stroke="#18D2AF" stroke-miterlimit="10"/>
<path d="M10.9481 96.8398H-2.79395V110.524H10.9481V96.8398Z" stroke="#18D2AF" stroke-miterlimit="10"/>
<path d="M230.866 83.1562H217.124V96.84H230.866V83.1562Z" stroke="#18D2AF" stroke-miterlimit="10"/>
<path d="M244.619 83.1562H230.877V96.84H244.619V83.1562Z" stroke="#18D2AF" stroke-miterlimit="10"/>
<path d="M258.361 83.1562H244.619V96.84H258.361V83.1562Z" stroke="#18D2AF" stroke-miterlimit="10"/>
<path d="M38.4335 83.1562H24.6914V96.84H38.4335V83.1562Z" stroke="#18D2AF" stroke-miterlimit="10"/>
<path d="M272.103 83.1562H258.361V96.84H272.103V83.1562Z" stroke="#18D2AF" stroke-miterlimit="10"/>
<path d="M217.123 83.1562H203.381V96.84H217.123V83.1562Z" stroke="#18D2AF" stroke-miterlimit="10"/>
<path d="M313.342 83.1562H299.6V96.84H313.342V83.1562Z" stroke="#18D2AF" stroke-miterlimit="10"/>
<path d="M285.856 83.1562H272.114V96.84H285.856V83.1562Z" stroke="#18D2AF" stroke-miterlimit="10"/>
<path d="M327.093 83.1562H313.351V96.84H327.093V83.1562Z" stroke="#18D2AF" stroke-miterlimit="10"/>
<path d="M203.381 83.1562H189.639V96.84H203.381V83.1562Z" stroke="#18D2AF" stroke-miterlimit="10"/>
<path d="M299.597 83.1562H285.854V96.84H299.597V83.1562Z" stroke="#18D2AF" stroke-miterlimit="10"/>
<path d="M107.167 83.1562H93.4248V96.84H107.167V83.1562Z" stroke="#18D2AF" stroke-miterlimit="10"/>
<path d="M93.412 83.1562H79.6699V96.84H93.412V83.1562Z" stroke="#18D2AF" stroke-miterlimit="10"/>
<path d="M272.101 178.932H258.359V192.615H272.101V178.932Z" stroke="#18D2AF" stroke-miterlimit="10"/>
<path d="M65.9287 83.1562H52.1865V96.84H65.9287V83.1562Z" stroke="#18D2AF" stroke-miterlimit="10"/>
<path d="M52.1757 83.1562H38.4336V96.84H52.1757V83.1562Z" stroke="#18D2AF" stroke-miterlimit="10"/>
<path d="M175.888 83.1562H162.146V96.84H175.888V83.1562Z" stroke="#18D2AF" stroke-miterlimit="10"/>
<path d="M120.909 83.1562H107.167V96.84H120.909V83.1562Z" stroke="#18D2AF" stroke-miterlimit="10"/>
<path d="M162.145 83.1562H148.403V96.84H162.145V83.1562Z" stroke="#18D2AF" stroke-miterlimit="10"/>
<path d="M189.639 83.1562H175.896V96.84H189.639V83.1562Z" stroke="#18D2AF" stroke-miterlimit="10"/>
<path d="M148.402 83.1562H134.66V96.84H148.402V83.1562Z" stroke="#18D2AF" stroke-miterlimit="10"/>
<path d="M134.649 83.1562H120.907V96.84H134.649V83.1562Z" stroke="#18D2AF" stroke-miterlimit="10"/>
<path d="M79.6718 83.1562H65.9297V96.84H79.6718V83.1562Z" stroke="#18D2AF" stroke-miterlimit="10"/>
<path d="M285.856 178.932H272.114V192.615H285.856V178.932Z" stroke="#18D2AF" stroke-miterlimit="10"/>
<path d="M299.597 178.932H285.854V192.615H299.597V178.932Z" stroke="#18D2AF" stroke-miterlimit="10"/>
<path d="M327.093 178.932H313.351V192.615H327.093V178.932Z" stroke="#18D2AF" stroke-miterlimit="10"/>
<path d="M313.342 178.932H299.6V192.615H313.342V178.932Z" stroke="#18D2AF" stroke-miterlimit="10"/>
<path d="M175.888 96.8398H162.146V110.524H175.888V96.8398Z" stroke="#18D2AF" stroke-miterlimit="10"/>
<path d="M313.342 261.014H299.6V274.697H313.342V261.014Z" stroke="#18D2AF" stroke-miterlimit="10"/>
<path d="M244.619 261.014H230.877V274.697H244.619V261.014Z" stroke="#18D2AF" stroke-miterlimit="10"/>
<path d="M299.597 261.014H285.854V274.697H299.597V261.014Z" stroke="#18D2AF" stroke-miterlimit="10"/>
<path d="M258.361 261.014H244.619V274.697H258.361V261.014Z" stroke="#18D2AF" stroke-miterlimit="10"/>
<path d="M285.856 261.014H272.114V274.697H285.856V261.014Z" stroke="#18D2AF" stroke-miterlimit="10"/>
<path d="M272.101 261.014H258.359V274.697H272.101V261.014Z" stroke="#18D2AF" stroke-miterlimit="10"/>
<path d="M230.866 261.014H217.124V274.697H230.866V261.014Z" stroke="#18D2AF" stroke-miterlimit="10"/>
<path d="M327.093 261.014H313.351V274.697H327.093V261.014Z" stroke="#18D2AF" stroke-miterlimit="10"/>
<path d="M10.9481 261.014H-2.79395V274.697H10.9481V261.014Z" stroke="#18D2AF" stroke-miterlimit="10"/>
<path d="M52.1757 261.014H38.4336V274.697H52.1757V261.014Z" stroke="#18D2AF" stroke-miterlimit="10"/>
<path d="M24.6913 261.014H10.9492V274.697H24.6913V261.014Z" stroke="#18D2AF" stroke-miterlimit="10"/>
<path d="M38.4335 261.014H24.6914V274.697H38.4335V261.014Z" stroke="#18D2AF" stroke-miterlimit="10"/>
<path d="M217.123 261.014H203.381V274.697H217.123V261.014Z" stroke="#18D2AF" stroke-miterlimit="10"/>
<path d="M148.402 261.014H134.66V274.697H148.402V261.014Z" stroke="#18D2AF" stroke-miterlimit="10"/>
<path d="M162.145 261.014H148.403V274.697H162.145V261.014Z" stroke="#18D2AF" stroke-miterlimit="10"/>
<path d="M175.888 261.014H162.146V274.697H175.888V261.014Z" stroke="#18D2AF" stroke-miterlimit="10"/>
<path d="M203.381 261.014H189.639V274.697H203.381V261.014Z" stroke="#18D2AF" stroke-miterlimit="10"/>
<path d="M189.639 261.014H175.896V274.697H189.639V261.014Z" stroke="#18D2AF" stroke-miterlimit="10"/>
<path d="M107.167 261.014H93.4248V274.697H107.167V261.014Z" stroke="#18D2AF" stroke-miterlimit="10"/>
<path d="M79.6718 261.014H65.9297V274.697H79.6718V261.014Z" stroke="#18D2AF" stroke-miterlimit="10"/>
<path d="M93.412 261.014H79.6699V274.697H93.412V261.014Z" stroke="#18D2AF" stroke-miterlimit="10"/>
<path d="M120.909 261.014H107.167V274.697H120.909V261.014Z" stroke="#18D2AF" stroke-miterlimit="10"/>
<path d="M134.649 261.014H120.907V274.697H134.649V261.014Z" stroke="#18D2AF" stroke-miterlimit="10"/>
<path d="M65.9287 261.014H52.1865V274.697H65.9287V261.014Z" stroke="#18D2AF" stroke-miterlimit="10"/>
<path d="M327.093 1.06445H313.351V14.7482H327.093V1.06445Z" stroke="#18D2AF" stroke-miterlimit="10"/>
<path d="M285.856 1.06445H272.114V14.7482H285.856V1.06445Z" stroke="#18D2AF" stroke-miterlimit="10"/>
<path d="M244.619 1.06445H230.877V14.7482H244.619V1.06445Z" stroke="#18D2AF" stroke-miterlimit="10"/>
<path d="M258.361 1.06445H244.619V14.7482H258.361V1.06445Z" stroke="#18D2AF" stroke-miterlimit="10"/>
<path d="M272.103 1.06445H258.361V14.7482H272.103V1.06445Z" stroke="#18D2AF" stroke-miterlimit="10"/>
<path d="M313.342 1.06445H299.6V14.7482H313.342V1.06445Z" stroke="#18D2AF" stroke-miterlimit="10"/>
<path d="M299.597 1.06445H285.854V14.7482H299.597V1.06445Z" stroke="#18D2AF" stroke-miterlimit="10"/>
<path d="M120.909 1.06445H107.167V14.7482H120.909V1.06445Z" stroke="#18D2AF" stroke-miterlimit="10"/>
<path d="M134.649 1.06445H120.907V14.7482H134.649V1.06445Z" stroke="#18D2AF" stroke-miterlimit="10"/>
<path d="M107.167 1.06445H93.4248V14.7482H107.167V1.06445Z" stroke="#18D2AF" stroke-miterlimit="10"/>
<path d="M148.402 1.06445H134.66V14.7482H148.402V1.06445Z" stroke="#18D2AF" stroke-miterlimit="10"/>
<path d="M93.412 1.06445H79.6699V14.7482H93.412V1.06445Z" stroke="#18D2AF" stroke-miterlimit="10"/>
<path d="M175.888 1.06445H162.146V14.7482H175.888V1.06445Z" stroke="#18D2AF" stroke-miterlimit="10"/>
<path d="M162.145 1.06445H148.403V14.7482H162.145V1.06445Z" stroke="#18D2AF" stroke-miterlimit="10"/>
<path d="M203.381 1.06445H189.639V14.7482H203.381V1.06445Z" stroke="#18D2AF" stroke-miterlimit="10"/>
<path d="M217.123 1.06445H203.381V14.7482H217.123V1.06445Z" stroke="#18D2AF" stroke-miterlimit="10"/>
<path d="M189.639 1.06445H175.896V14.7482H189.639V1.06445Z" stroke="#18D2AF" stroke-miterlimit="10"/>
<path d="M230.866 1.06445H217.124V14.7482H230.866V1.06445Z" stroke="#18D2AF" stroke-miterlimit="10"/>
<path d="M230.866 14.748H217.124V28.4318H230.866V14.748Z" stroke="#18D2AF" stroke-miterlimit="10"/>
<path d="M272.101 14.748H258.359V28.4318H272.101V14.748Z" stroke="#18D2AF" stroke-miterlimit="10"/>
<path d="M285.856 14.748H272.114V28.4318H285.856V14.748Z" stroke="#18D2AF" stroke-miterlimit="10"/>
<path d="M244.619 14.748H230.877V28.4318H244.619V14.748Z" stroke="#18D2AF" stroke-miterlimit="10"/>
<path d="M299.597 14.748H285.854V28.4318H299.597V14.748Z" stroke="#18D2AF" stroke-miterlimit="10"/>
<path d="M258.361 14.748H244.619V28.4318H258.361V14.748Z" stroke="#18D2AF" stroke-miterlimit="10"/>
<path d="M313.342 14.748H299.6V28.4318H313.342V14.748Z" stroke="#18D2AF" stroke-miterlimit="10"/>
<path d="M327.093 14.748H313.351V28.4318H327.093V14.748Z" stroke="#18D2AF" stroke-miterlimit="10"/>
<path d="M79.6718 1.06445H65.9297V14.7482H79.6718V1.06445Z" stroke="#18D2AF" stroke-miterlimit="10"/>
<path d="M217.123 14.748H203.381V28.4318H217.123V14.748Z" stroke="#18D2AF" stroke-miterlimit="10"/>
<path d="M107.167 14.748H93.4248V28.4318H107.167V14.748Z" stroke="#18D2AF" stroke-miterlimit="10"/>
<path d="M120.909 14.748H107.167V28.4318H120.909V14.748Z" stroke="#18D2AF" stroke-miterlimit="10"/>
<path d="M134.649 14.748H120.907V28.4318H134.649V14.748Z" stroke="#18D2AF" stroke-miterlimit="10"/>
<path d="M93.412 14.748H79.6699V28.4318H93.412V14.748Z" stroke="#18D2AF" stroke-miterlimit="10"/>
<path d="M79.6718 14.748H65.9297V28.4318H79.6718V14.748Z" stroke="#18D2AF" stroke-miterlimit="10"/>
<path d="M189.639 14.748H175.896V28.4318H189.639V14.748Z" stroke="#18D2AF" stroke-miterlimit="10"/>
<path d="M65.9287 14.748H52.1865V28.4318H65.9287V14.748Z" stroke="#18D2AF" stroke-miterlimit="10"/>
<path d="M148.402 14.748H134.66V28.4318H148.402V14.748Z" stroke="#18D2AF" stroke-miterlimit="10"/>
<path d="M203.381 14.748H189.639V28.4318H203.381V14.748Z" stroke="#18D2AF" stroke-miterlimit="10"/>
<path d="M175.888 14.748H162.146V28.4318H175.888V14.748Z" stroke="#18D2AF" stroke-miterlimit="10"/>
<path d="M162.145 14.748H148.403V28.4318H162.145V14.748Z" stroke="#18D2AF" stroke-miterlimit="10"/>
<path d="M24.6913 14.748H10.9492V28.4318H24.6913V14.748Z" stroke="#18D2AF" stroke-miterlimit="10"/>
<path d="M38.4335 14.748H24.6914V28.4318H38.4335V14.748Z" stroke="#18D2AF" stroke-miterlimit="10"/>
<path d="M52.1757 14.748H38.4336V28.4318H52.1757V14.748Z" stroke="#18D2AF" stroke-miterlimit="10"/>
<path d="M10.9481 14.748H-2.79395V28.4318H10.9481V14.748Z" stroke="#18D2AF" stroke-miterlimit="10"/>
<path d="M272.101 -12.6094H258.359V1.0744H272.101V-12.6094Z" stroke="#18D2AF" stroke-miterlimit="10"/>
<path d="M244.619 -12.6094H230.877V1.0744H244.619V-12.6094Z" stroke="#18D2AF" stroke-miterlimit="10"/>
<path d="M258.361 -12.6094H244.619V1.0744H258.361V-12.6094Z" stroke="#18D2AF" stroke-miterlimit="10"/>
<path d="M203.381 -12.6094H189.639V1.0744H203.381V-12.6094Z" stroke="#18D2AF" stroke-miterlimit="10"/>
<path d="M217.123 -12.6094H203.381V1.0744H217.123V-12.6094Z" stroke="#18D2AF" stroke-miterlimit="10"/>
<path d="M230.866 -12.6094H217.124V1.0744H230.866V-12.6094Z" stroke="#18D2AF" stroke-miterlimit="10"/>
<path d="M327.093 -12.6094H313.351V1.0744H327.093V-12.6094Z" stroke="#18D2AF" stroke-miterlimit="10"/>
<path d="M299.597 -12.6094H285.854V1.0744H299.597V-12.6094Z" stroke="#18D2AF" stroke-miterlimit="10"/>
<path d="M313.342 -12.6094H299.6V1.0744H313.342V-12.6094Z" stroke="#18D2AF" stroke-miterlimit="10"/>
<path d="M285.856 -12.6094H272.114V1.0744H285.856V-12.6094Z" stroke="#18D2AF" stroke-miterlimit="10"/>
<path d="M189.639 -12.6094H175.896V1.0744H189.639V-12.6094Z" stroke="#18D2AF" stroke-miterlimit="10"/>
<path d="M79.6718 -12.6094H65.9297V1.0744H79.6718V-12.6094Z" stroke="#18D2AF" stroke-miterlimit="10"/>
<path d="M65.9287 -12.6094H52.1865V1.0744H65.9287V-12.6094Z" stroke="#18D2AF" stroke-miterlimit="10"/>
<path d="M52.1757 -12.6094H38.4336V1.0744H52.1757V-12.6094Z" stroke="#18D2AF" stroke-miterlimit="10"/>
<path d="M107.167 -12.6094H93.4248V1.0744H107.167V-12.6094Z" stroke="#18D2AF" stroke-miterlimit="10"/>
<path d="M162.145 -12.6094H148.403V1.0744H162.145V-12.6094Z" stroke="#18D2AF" stroke-miterlimit="10"/>
<path d="M175.888 -12.6094H162.146V1.0744H175.888V-12.6094Z" stroke="#18D2AF" stroke-miterlimit="10"/>
<path d="M120.909 -12.6094H107.167V1.0744H120.909V-12.6094Z" stroke="#18D2AF" stroke-miterlimit="10"/>
<path d="M134.649 -12.6094H120.907V1.0744H134.649V-12.6094Z" stroke="#18D2AF" stroke-miterlimit="10"/>
<path d="M148.402 -12.6094H134.66V1.0744H148.402V-12.6094Z" stroke="#18D2AF" stroke-miterlimit="10"/>
<path d="M38.4335 -12.6094H24.6914V1.0744H38.4335V-12.6094Z" stroke="#18D2AF" stroke-miterlimit="10"/>
<path d="M93.412 -12.6094H79.6699V1.0744H93.412V-12.6094Z" stroke="#18D2AF" stroke-miterlimit="10"/>
<path d="M10.9481 -12.6094H-2.79395V1.0744H10.9481V-12.6094Z" stroke="#18D2AF" stroke-miterlimit="10"/>
<path d="M24.6913 -12.6094H10.9492V1.0744H24.6913V-12.6094Z" stroke="#18D2AF" stroke-miterlimit="10"/>
<path d="M38.4335 1.06445H24.6914V14.7482H38.4335V1.06445Z" stroke="#18D2AF" stroke-miterlimit="10"/>
<path d="M24.6913 1.06445H10.9492V14.7482H24.6913V1.06445Z" stroke="#18D2AF" stroke-miterlimit="10"/>
<path d="M52.1757 1.06445H38.4336V14.7482H52.1757V1.06445Z" stroke="#18D2AF" stroke-miterlimit="10"/>
<path d="M10.9481 1.06445H-2.79395V14.7482H10.9481V1.06445Z" stroke="#18D2AF" stroke-miterlimit="10"/>
<path d="M65.9287 1.06445H52.1865V14.7482H65.9287V1.06445Z" stroke="#18D2AF" stroke-miterlimit="10"/>
</g>
</g>
</g>
<defs>
<radialGradient id="paint0_radial_1639_305013" cx="0" cy="0" r="1" gradientUnits="userSpaceOnUse" gradientTransform="translate(159.838 134.757) rotate(90) scale(105.99 125.291)">
<stop stop-color="#C4C4C4"/>
<stop offset="1" stop-color="#C4C4C4" stop-opacity="0"/>
</radialGradient>
</defs>
</svg>
