<svg width="206" height="151" viewBox="0 0 206 151" fill="none" xmlns="http://www.w3.org/2000/svg">
<mask id="path-1-inside-1_1701_23569" fill="white">
<path d="M204.65 48.5C204.119 48.5 203.611 48.2893 203.236 47.9142C202.861 47.5391 202.65 47.0304 202.65 46.5C202.65 45.9696 202.861 45.4608 203.236 45.0858C203.611 44.7107 204.119 44.5 204.65 44.5C204.763 44.4897 204.877 44.4897 204.99 44.5V14.66C204.99 12.734 204.61 10.8268 203.873 9.04755C203.136 7.26826 202.055 5.65172 200.692 4.29029C199.33 2.92885 197.713 1.84919 195.933 1.11304C194.153 0.376895 192.246 -0.00131038 190.32 3.41111e-06H15.0098C13.0838 -0.00131038 11.1764 0.376895 9.39663 1.11304C7.61685 1.84919 5.99956 2.92885 4.63719 4.29029C3.27483 5.65172 2.19409 7.26826 1.45673 9.04755C0.719367 10.8268 0.339843 12.734 0.339844 14.66V44.53H0.669844C1.20028 44.53 1.70898 44.7407 2.08406 45.1158C2.45913 45.4909 2.66984 45.9995 2.66984 46.53C2.66984 47.0604 2.45913 47.5691 2.08406 47.9442C1.70898 48.3193 1.20028 48.53 0.669844 48.53C0.560061 48.5397 0.449626 48.5397 0.339844 48.53V136.4C0.358351 140.279 1.9121 143.992 4.66126 146.728C7.41041 149.464 11.1312 151 15.0098 151H190.34C194.231 151 197.962 149.454 200.713 146.703C203.464 143.952 205.01 140.221 205.01 136.33V48.46C204.891 48.485 204.771 48.4984 204.65 48.5ZM8.49984 48.5C7.96941 48.5 7.4607 48.2893 7.08563 47.9142C6.71056 47.5391 6.49984 47.0304 6.49984 46.5C6.49984 45.9696 6.71056 45.4608 7.08563 45.0858C7.4607 44.7107 7.96941 44.5 8.49984 44.5C9.03028 44.5 9.53898 44.7107 9.91406 45.0858C10.2891 45.4608 10.4998 45.9696 10.4998 46.5C10.4999 47.027 10.2919 47.5327 9.92115 47.9072C9.55039 48.2817 9.0468 48.4947 8.51984 48.5H8.49984ZM16.3498 48.5C15.8194 48.5 15.3107 48.2893 14.9356 47.9142C14.5606 47.5391 14.3498 47.0304 14.3498 46.5C14.3498 45.9696 14.5606 45.4608 14.9356 45.0858C15.3107 44.7107 15.8194 44.5 16.3498 44.5C16.8803 44.5 17.389 44.7107 17.7641 45.0858C18.1391 45.4608 18.3498 45.9696 18.3498 46.5C18.3499 47.027 18.1419 47.5327 17.7711 47.9072C17.4004 48.2817 16.8968 48.4947 16.3698 48.5H16.3498ZM24.1898 48.5C23.7943 48.5 23.4076 48.3827 23.0787 48.163C22.7498 47.9432 22.4935 47.6308 22.3421 47.2654C22.1907 46.8999 22.1511 46.4978 22.2283 46.1098C22.3054 45.7218 22.4959 45.3655 22.7756 45.0858C23.0553 44.8061 23.4117 44.6156 23.7997 44.5385C24.1876 44.4613 24.5898 44.5009 24.9552 44.6522C25.3207 44.8036 25.633 45.06 25.8528 45.3889C26.0725 45.7178 26.1898 46.1044 26.1898 46.5C26.1899 47.027 25.9819 47.5327 25.6111 47.9072C25.2404 48.2817 24.7368 48.4947 24.2098 48.5H24.1898ZM32.0398 48.5C31.6443 48.5 31.2576 48.3827 30.9287 48.163C30.5998 47.9432 30.3435 47.6308 30.1921 47.2654C30.0407 46.8999 30.0011 46.4978 30.0783 46.1098C30.1554 45.7218 30.3459 45.3655 30.6256 45.0858C30.9053 44.8061 31.2617 44.6156 31.6497 44.5385C32.0376 44.4613 32.4398 44.5009 32.8052 44.6522C33.1707 44.8036 33.483 45.06 33.7028 45.3889C33.9225 45.7178 34.0398 46.1044 34.0398 46.5C34.0399 47.027 33.8319 47.5327 33.4611 47.9072C33.0904 48.2817 32.5868 48.4947 32.0598 48.5H32.0398ZM39.8798 48.5C39.4843 48.5 39.0976 48.3827 38.7687 48.163C38.4398 47.9432 38.1835 47.6308 38.0321 47.2654C37.8807 46.8999 37.8411 46.4978 37.9183 46.1098C37.9954 45.7218 38.1859 45.3655 38.4656 45.0858C38.7453 44.8061 39.1017 44.6156 39.4897 44.5385C39.8776 44.4613 40.2798 44.5009 40.6452 44.6522C41.0107 44.8036 41.323 45.06 41.5428 45.3889C41.7625 45.7178 41.8798 46.1044 41.8798 46.5C41.8799 47.027 41.6719 47.5327 41.3011 47.9072C40.9304 48.2817 40.4268 48.4947 39.8998 48.5H39.8798ZM47.7298 48.5C47.3343 48.5 46.9476 48.3827 46.6187 48.163C46.2898 47.9432 46.0335 47.6308 45.8821 47.2654C45.7307 46.8999 45.6911 46.4978 45.7683 46.1098C45.8454 45.7218 46.0359 45.3655 46.3156 45.0858C46.5953 44.8061 46.9517 44.6156 47.3397 44.5385C47.7276 44.4613 48.1298 44.5009 48.4952 44.6522C48.8607 44.8036 49.173 45.06 49.3928 45.3889C49.6125 45.7178 49.7298 46.1044 49.7298 46.5C49.7299 47.027 49.5219 47.5327 49.1511 47.9072C48.7804 48.2817 48.2768 48.4947 47.7498 48.5H47.7298ZM55.5798 48.5C55.1843 48.5 54.7976 48.3827 54.4687 48.163C54.1398 47.9432 53.8835 47.6308 53.7321 47.2654C53.5807 46.8999 53.5411 46.4978 53.6183 46.1098C53.6954 45.7218 53.8859 45.3655 54.1656 45.0858C54.4453 44.8061 54.8017 44.6156 55.1897 44.5385C55.5776 44.4613 55.9798 44.5009 56.3452 44.6522C56.7107 44.8036 57.023 45.06 57.2428 45.3889C57.4625 45.7178 57.5798 46.1044 57.5798 46.5C57.5802 47.0185 57.3791 47.5169 57.019 47.89C56.659 48.2631 56.1681 48.4819 55.6498 48.5H55.5798ZM63.4198 48.5C63.0243 48.5 62.6376 48.3827 62.3087 48.163C61.9798 47.9432 61.7235 47.6308 61.5721 47.2654C61.4207 46.8999 61.3811 46.4978 61.4583 46.1098C61.5354 45.7218 61.7259 45.3655 62.0056 45.0858C62.2853 44.8061 62.6417 44.6156 63.0297 44.5385C63.4176 44.4613 63.8198 44.5009 64.1852 44.6522C64.5507 44.8036 64.863 45.06 65.0828 45.3889C65.3025 45.7178 65.4198 46.1044 65.4198 46.5C65.4199 47.027 65.2119 47.5327 64.8411 47.9072C64.4704 48.2817 63.9668 48.4947 63.4398 48.5H63.4198ZM71.2698 48.5C70.8743 48.5 70.4876 48.3827 70.1587 48.163C69.8298 47.9432 69.5735 47.6308 69.4221 47.2654C69.2707 46.8999 69.2311 46.4978 69.3083 46.1098C69.3854 45.7218 69.5759 45.3655 69.8556 45.0858C70.1353 44.8061 70.4917 44.6156 70.8797 44.5385C71.2676 44.4613 71.6698 44.5009 72.0352 44.6522C72.4007 44.8036 72.713 45.06 72.9328 45.3889C73.1525 45.7178 73.2698 46.1044 73.2698 46.5C73.2699 47.027 73.0619 47.5327 72.6911 47.9072C72.3204 48.2817 71.8168 48.4947 71.2898 48.5H71.2698ZM79.1198 48.5C78.7243 48.5 78.3376 48.3827 78.0087 48.163C77.6798 47.9432 77.4235 47.6308 77.2721 47.2654C77.1207 46.8999 77.0811 46.4978 77.1583 46.1098C77.2354 45.7218 77.4259 45.3655 77.7056 45.0858C77.9853 44.8061 78.3417 44.6156 78.7297 44.5385C79.1176 44.4613 79.5198 44.5009 79.8852 44.6522C80.2507 44.8036 80.563 45.06 80.7828 45.3889C81.0025 45.7178 81.1198 46.1044 81.1198 46.5C81.1199 47.027 80.9119 47.5327 80.5411 47.9072C80.1704 48.2817 79.6668 48.4947 79.1398 48.5H79.1198ZM86.9598 48.5C86.5643 48.5 86.1776 48.3827 85.8487 48.163C85.5198 47.9432 85.2635 47.6308 85.1121 47.2654C84.9607 46.8999 84.9211 46.4978 84.9983 46.1098C85.0754 45.7218 85.2659 45.3655 85.5456 45.0858C85.8253 44.8061 86.1817 44.6156 86.5697 44.5385C86.9576 44.4613 87.3597 44.5009 87.7252 44.6522C88.0907 44.8036 88.403 45.06 88.6228 45.3889C88.8425 45.7178 88.9598 46.1044 88.9598 46.5C88.9599 47.027 88.7519 47.5327 88.3811 47.9072C88.0104 48.2817 87.5068 48.4947 86.9798 48.5H86.9598ZM94.8098 48.5C94.4143 48.5 94.0276 48.3827 93.6987 48.163C93.3698 47.9432 93.1135 47.6308 92.9621 47.2654C92.8107 46.8999 92.7711 46.4978 92.8483 46.1098C92.9254 45.7218 93.1159 45.3655 93.3956 45.0858C93.6753 44.8061 94.0317 44.6156 94.4197 44.5385C94.8076 44.4613 95.2098 44.5009 95.5752 44.6522C95.9407 44.8036 96.253 45.06 96.4728 45.3889C96.6925 45.7178 96.8098 46.1044 96.8098 46.5C96.8099 47.027 96.6019 47.5327 96.2311 47.9072C95.8604 48.2817 95.3568 48.4947 94.8298 48.5H94.8098ZM102.65 48.5C102.254 48.5 101.868 48.3827 101.539 48.163C101.21 47.9432 100.953 47.6308 100.802 47.2654C100.651 46.8999 100.611 46.4978 100.688 46.1098C100.765 45.7218 100.956 45.3655 101.236 45.0858C101.515 44.8061 101.872 44.6156 102.26 44.5385C102.648 44.4613 103.05 44.5009 103.415 44.6522C103.781 44.8036 104.093 45.06 104.313 45.3889C104.533 45.7178 104.65 46.1044 104.65 46.5C104.65 47.0304 104.439 47.5391 104.064 47.9142C103.689 48.2893 103.18 48.5 102.65 48.5ZM110.5 48.5C110.104 48.5 109.718 48.3827 109.389 48.163C109.06 47.9432 108.803 47.6308 108.652 47.2654C108.501 46.8999 108.461 46.4978 108.538 46.1098C108.615 45.7218 108.806 45.3655 109.086 45.0858C109.365 44.8061 109.722 44.6156 110.11 44.5385C110.498 44.4613 110.9 44.5009 111.265 44.6522C111.631 44.8036 111.943 45.06 112.163 45.3889C112.383 45.7178 112.5 46.1044 112.5 46.5C112.5 47.027 112.292 47.5327 111.921 47.9072C111.55 48.2817 111.047 48.4947 110.52 48.5H110.5ZM118.35 48.5C117.954 48.5 117.568 48.3827 117.239 48.163C116.91 47.9432 116.653 47.6308 116.502 47.2654C116.351 46.8999 116.311 46.4978 116.388 46.1098C116.465 45.7218 116.656 45.3655 116.936 45.0858C117.215 44.8061 117.572 44.6156 117.96 44.5385C118.348 44.4613 118.75 44.5009 119.115 44.6522C119.481 44.8036 119.793 45.06 120.013 45.3889C120.233 45.7178 120.35 46.1044 120.35 46.5C120.35 47.027 120.142 47.5327 119.771 47.9072C119.4 48.2817 118.897 48.4947 118.37 48.5H118.35ZM126.19 48.5C125.794 48.5 125.408 48.3827 125.079 48.163C124.75 47.9432 124.493 47.6308 124.342 47.2654C124.191 46.8999 124.151 46.4978 124.228 46.1098C124.305 45.7218 124.496 45.3655 124.776 45.0858C125.055 44.8061 125.412 44.6156 125.8 44.5385C126.188 44.4613 126.59 44.5009 126.955 44.6522C127.321 44.8036 127.633 45.06 127.853 45.3889C128.073 45.7178 128.19 46.1044 128.19 46.5C128.19 47.027 127.982 47.5327 127.611 47.9072C127.24 48.2817 126.737 48.4947 126.21 48.5H126.19ZM134.04 48.5C133.644 48.5 133.258 48.3827 132.929 48.163C132.6 47.9432 132.343 47.6308 132.192 47.2654C132.041 46.8999 132.001 46.4978 132.078 46.1098C132.155 45.7218 132.346 45.3655 132.626 45.0858C132.905 44.8061 133.262 44.6156 133.65 44.5385C134.038 44.4613 134.44 44.5009 134.805 44.6522C135.171 44.8036 135.483 45.06 135.703 45.3889C135.923 45.7178 136.04 46.1044 136.04 46.5C136.04 47.027 135.832 47.5327 135.461 47.9072C135.09 48.2817 134.587 48.4947 134.06 48.5H134.04ZM141.88 48.5C141.484 48.5 141.098 48.3827 140.769 48.163C140.44 47.9432 140.183 47.6308 140.032 47.2654C139.881 46.8999 139.841 46.4978 139.918 46.1098C139.995 45.7218 140.186 45.3655 140.466 45.0858C140.745 44.8061 141.102 44.6156 141.49 44.5385C141.878 44.4613 142.28 44.5009 142.645 44.6522C143.011 44.8036 143.323 45.06 143.543 45.3889C143.763 45.7178 143.88 46.1044 143.88 46.5C143.88 47.027 143.672 47.5327 143.301 47.9072C142.93 48.2817 142.427 48.4947 141.9 48.5H141.88ZM149.73 48.5C149.334 48.5 148.948 48.3827 148.619 48.163C148.29 47.9432 148.033 47.6308 147.882 47.2654C147.731 46.8999 147.691 46.4978 147.768 46.1098C147.845 45.7218 148.036 45.3655 148.316 45.0858C148.595 44.8061 148.952 44.6156 149.34 44.5385C149.728 44.4613 150.13 44.5009 150.495 44.6522C150.861 44.8036 151.173 45.06 151.393 45.3889C151.613 45.7178 151.73 46.1044 151.73 46.5C151.73 47.027 151.522 47.5327 151.151 47.9072C150.78 48.2817 150.277 48.4947 149.75 48.5H149.73ZM157.58 48.5C157.184 48.5 156.798 48.3827 156.469 48.163C156.14 47.9432 155.883 47.6308 155.732 47.2654C155.581 46.8999 155.541 46.4978 155.618 46.1098C155.695 45.7218 155.886 45.3655 156.166 45.0858C156.445 44.8061 156.802 44.6156 157.19 44.5385C157.578 44.4613 157.98 44.5009 158.345 44.6522C158.711 44.8036 159.023 45.06 159.243 45.3889C159.463 45.7178 159.58 46.1044 159.58 46.5C159.58 47.0185 159.379 47.5169 159.019 47.89C158.659 48.2631 158.168 48.4819 157.65 48.5H157.58ZM165.42 48.5C165.024 48.5 164.638 48.3827 164.309 48.163C163.98 47.9432 163.723 47.6308 163.572 47.2654C163.421 46.8999 163.381 46.4978 163.458 46.1098C163.535 45.7218 163.726 45.3655 164.006 45.0858C164.285 44.8061 164.642 44.6156 165.03 44.5385C165.418 44.4613 165.82 44.5009 166.185 44.6522C166.551 44.8036 166.863 45.06 167.083 45.3889C167.303 45.7178 167.42 46.1044 167.42 46.5C167.42 47.027 167.212 47.5327 166.841 47.9072C166.47 48.2817 165.967 48.4947 165.44 48.5H165.42ZM173.27 48.5C172.874 48.5 172.488 48.3827 172.159 48.163C171.83 47.9432 171.573 47.6308 171.422 47.2654C171.271 46.8999 171.231 46.4978 171.308 46.1098C171.385 45.7218 171.576 45.3655 171.856 45.0858C172.135 44.8061 172.492 44.6156 172.88 44.5385C173.268 44.4613 173.67 44.5009 174.035 44.6522C174.401 44.8036 174.713 45.06 174.933 45.3889C175.153 45.7178 175.27 46.1044 175.27 46.5C175.27 47.027 175.062 47.5327 174.691 47.9072C174.32 48.2817 173.817 48.4947 173.29 48.5H173.27ZM181.12 48.5C180.724 48.5 180.338 48.3827 180.009 48.163C179.68 47.9432 179.423 47.6308 179.272 47.2654C179.121 46.8999 179.081 46.4978 179.158 46.1098C179.235 45.7218 179.426 45.3655 179.706 45.0858C179.985 44.8061 180.342 44.6156 180.73 44.5385C181.118 44.4613 181.52 44.5009 181.885 44.6522C182.251 44.8036 182.563 45.06 182.783 45.3889C183.003 45.7178 183.12 46.1044 183.12 46.5C183.12 47.027 182.912 47.5327 182.541 47.9072C182.17 48.2817 181.667 48.4947 181.14 48.5H181.12ZM188.96 48.5C188.564 48.5 188.178 48.3827 187.849 48.163C187.52 47.9432 187.263 47.6308 187.112 47.2654C186.961 46.8999 186.921 46.4978 186.998 46.1098C187.075 45.7218 187.266 45.3655 187.546 45.0858C187.825 44.8061 188.182 44.6156 188.57 44.5385C188.958 44.4613 189.36 44.5009 189.725 44.6522C190.091 44.8036 190.403 45.06 190.623 45.3889C190.843 45.7178 190.96 46.1044 190.96 46.5C190.96 47.027 190.752 47.5327 190.381 47.9072C190.01 48.2817 189.507 48.4947 188.98 48.5H188.96ZM196.81 48.5C196.414 48.5 196.028 48.3827 195.699 48.163C195.37 47.9432 195.113 47.6308 194.962 47.2654C194.811 46.8999 194.771 46.4978 194.848 46.1098C194.925 45.7218 195.116 45.3655 195.396 45.0858C195.675 44.8061 196.032 44.6156 196.42 44.5385C196.808 44.4613 197.21 44.5009 197.575 44.6522C197.941 44.8036 198.253 45.06 198.473 45.3889C198.693 45.7178 198.81 46.1044 198.81 46.5C198.81 47.027 198.602 47.5327 198.231 47.9072C197.86 48.2817 197.357 48.4947 196.83 48.5H196.81Z"/>
</mask>
<path d="M204.65 48.5C204.119 48.5 203.611 48.2893 203.236 47.9142C202.861 47.5391 202.65 47.0304 202.65 46.5C202.65 45.9696 202.861 45.4608 203.236 45.0858C203.611 44.7107 204.119 44.5 204.65 44.5C204.763 44.4897 204.877 44.4897 204.99 44.5V14.66C204.99 12.734 204.61 10.8268 203.873 9.04755C203.136 7.26826 202.055 5.65172 200.692 4.29029C199.33 2.92885 197.713 1.84919 195.933 1.11304C194.153 0.376895 192.246 -0.00131038 190.32 3.41111e-06H15.0098C13.0838 -0.00131038 11.1764 0.376895 9.39663 1.11304C7.61685 1.84919 5.99956 2.92885 4.63719 4.29029C3.27483 5.65172 2.19409 7.26826 1.45673 9.04755C0.719367 10.8268 0.339843 12.734 0.339844 14.66V44.53H0.669844C1.20028 44.53 1.70898 44.7407 2.08406 45.1158C2.45913 45.4909 2.66984 45.9995 2.66984 46.53C2.66984 47.0604 2.45913 47.5691 2.08406 47.9442C1.70898 48.3193 1.20028 48.53 0.669844 48.53C0.560061 48.5397 0.449626 48.5397 0.339844 48.53V136.4C0.358351 140.279 1.9121 143.992 4.66126 146.728C7.41041 149.464 11.1312 151 15.0098 151H190.34C194.231 151 197.962 149.454 200.713 146.703C203.464 143.952 205.01 140.221 205.01 136.33V48.46C204.891 48.485 204.771 48.4984 204.65 48.5ZM8.49984 48.5C7.96941 48.5 7.4607 48.2893 7.08563 47.9142C6.71056 47.5391 6.49984 47.0304 6.49984 46.5C6.49984 45.9696 6.71056 45.4608 7.08563 45.0858C7.4607 44.7107 7.96941 44.5 8.49984 44.5C9.03028 44.5 9.53898 44.7107 9.91406 45.0858C10.2891 45.4608 10.4998 45.9696 10.4998 46.5C10.4999 47.027 10.2919 47.5327 9.92115 47.9072C9.55039 48.2817 9.0468 48.4947 8.51984 48.5H8.49984ZM16.3498 48.5C15.8194 48.5 15.3107 48.2893 14.9356 47.9142C14.5606 47.5391 14.3498 47.0304 14.3498 46.5C14.3498 45.9696 14.5606 45.4608 14.9356 45.0858C15.3107 44.7107 15.8194 44.5 16.3498 44.5C16.8803 44.5 17.389 44.7107 17.7641 45.0858C18.1391 45.4608 18.3498 45.9696 18.3498 46.5C18.3499 47.027 18.1419 47.5327 17.7711 47.9072C17.4004 48.2817 16.8968 48.4947 16.3698 48.5H16.3498ZM24.1898 48.5C23.7943 48.5 23.4076 48.3827 23.0787 48.163C22.7498 47.9432 22.4935 47.6308 22.3421 47.2654C22.1907 46.8999 22.1511 46.4978 22.2283 46.1098C22.3054 45.7218 22.4959 45.3655 22.7756 45.0858C23.0553 44.8061 23.4117 44.6156 23.7997 44.5385C24.1876 44.4613 24.5898 44.5009 24.9552 44.6522C25.3207 44.8036 25.633 45.06 25.8528 45.3889C26.0725 45.7178 26.1898 46.1044 26.1898 46.5C26.1899 47.027 25.9819 47.5327 25.6111 47.9072C25.2404 48.2817 24.7368 48.4947 24.2098 48.5H24.1898ZM32.0398 48.5C31.6443 48.5 31.2576 48.3827 30.9287 48.163C30.5998 47.9432 30.3435 47.6308 30.1921 47.2654C30.0407 46.8999 30.0011 46.4978 30.0783 46.1098C30.1554 45.7218 30.3459 45.3655 30.6256 45.0858C30.9053 44.8061 31.2617 44.6156 31.6497 44.5385C32.0376 44.4613 32.4398 44.5009 32.8052 44.6522C33.1707 44.8036 33.483 45.06 33.7028 45.3889C33.9225 45.7178 34.0398 46.1044 34.0398 46.5C34.0399 47.027 33.8319 47.5327 33.4611 47.9072C33.0904 48.2817 32.5868 48.4947 32.0598 48.5H32.0398ZM39.8798 48.5C39.4843 48.5 39.0976 48.3827 38.7687 48.163C38.4398 47.9432 38.1835 47.6308 38.0321 47.2654C37.8807 46.8999 37.8411 46.4978 37.9183 46.1098C37.9954 45.7218 38.1859 45.3655 38.4656 45.0858C38.7453 44.8061 39.1017 44.6156 39.4897 44.5385C39.8776 44.4613 40.2798 44.5009 40.6452 44.6522C41.0107 44.8036 41.323 45.06 41.5428 45.3889C41.7625 45.7178 41.8798 46.1044 41.8798 46.5C41.8799 47.027 41.6719 47.5327 41.3011 47.9072C40.9304 48.2817 40.4268 48.4947 39.8998 48.5H39.8798ZM47.7298 48.5C47.3343 48.5 46.9476 48.3827 46.6187 48.163C46.2898 47.9432 46.0335 47.6308 45.8821 47.2654C45.7307 46.8999 45.6911 46.4978 45.7683 46.1098C45.8454 45.7218 46.0359 45.3655 46.3156 45.0858C46.5953 44.8061 46.9517 44.6156 47.3397 44.5385C47.7276 44.4613 48.1298 44.5009 48.4952 44.6522C48.8607 44.8036 49.173 45.06 49.3928 45.3889C49.6125 45.7178 49.7298 46.1044 49.7298 46.5C49.7299 47.027 49.5219 47.5327 49.1511 47.9072C48.7804 48.2817 48.2768 48.4947 47.7498 48.5H47.7298ZM55.5798 48.5C55.1843 48.5 54.7976 48.3827 54.4687 48.163C54.1398 47.9432 53.8835 47.6308 53.7321 47.2654C53.5807 46.8999 53.5411 46.4978 53.6183 46.1098C53.6954 45.7218 53.8859 45.3655 54.1656 45.0858C54.4453 44.8061 54.8017 44.6156 55.1897 44.5385C55.5776 44.4613 55.9798 44.5009 56.3452 44.6522C56.7107 44.8036 57.023 45.06 57.2428 45.3889C57.4625 45.7178 57.5798 46.1044 57.5798 46.5C57.5802 47.0185 57.3791 47.5169 57.019 47.89C56.659 48.2631 56.1681 48.4819 55.6498 48.5H55.5798ZM63.4198 48.5C63.0243 48.5 62.6376 48.3827 62.3087 48.163C61.9798 47.9432 61.7235 47.6308 61.5721 47.2654C61.4207 46.8999 61.3811 46.4978 61.4583 46.1098C61.5354 45.7218 61.7259 45.3655 62.0056 45.0858C62.2853 44.8061 62.6417 44.6156 63.0297 44.5385C63.4176 44.4613 63.8198 44.5009 64.1852 44.6522C64.5507 44.8036 64.863 45.06 65.0828 45.3889C65.3025 45.7178 65.4198 46.1044 65.4198 46.5C65.4199 47.027 65.2119 47.5327 64.8411 47.9072C64.4704 48.2817 63.9668 48.4947 63.4398 48.5H63.4198ZM71.2698 48.5C70.8743 48.5 70.4876 48.3827 70.1587 48.163C69.8298 47.9432 69.5735 47.6308 69.4221 47.2654C69.2707 46.8999 69.2311 46.4978 69.3083 46.1098C69.3854 45.7218 69.5759 45.3655 69.8556 45.0858C70.1353 44.8061 70.4917 44.6156 70.8797 44.5385C71.2676 44.4613 71.6698 44.5009 72.0352 44.6522C72.4007 44.8036 72.713 45.06 72.9328 45.3889C73.1525 45.7178 73.2698 46.1044 73.2698 46.5C73.2699 47.027 73.0619 47.5327 72.6911 47.9072C72.3204 48.2817 71.8168 48.4947 71.2898 48.5H71.2698ZM79.1198 48.5C78.7243 48.5 78.3376 48.3827 78.0087 48.163C77.6798 47.9432 77.4235 47.6308 77.2721 47.2654C77.1207 46.8999 77.0811 46.4978 77.1583 46.1098C77.2354 45.7218 77.4259 45.3655 77.7056 45.0858C77.9853 44.8061 78.3417 44.6156 78.7297 44.5385C79.1176 44.4613 79.5198 44.5009 79.8852 44.6522C80.2507 44.8036 80.563 45.06 80.7828 45.3889C81.0025 45.7178 81.1198 46.1044 81.1198 46.5C81.1199 47.027 80.9119 47.5327 80.5411 47.9072C80.1704 48.2817 79.6668 48.4947 79.1398 48.5H79.1198ZM86.9598 48.5C86.5643 48.5 86.1776 48.3827 85.8487 48.163C85.5198 47.9432 85.2635 47.6308 85.1121 47.2654C84.9607 46.8999 84.9211 46.4978 84.9983 46.1098C85.0754 45.7218 85.2659 45.3655 85.5456 45.0858C85.8253 44.8061 86.1817 44.6156 86.5697 44.5385C86.9576 44.4613 87.3597 44.5009 87.7252 44.6522C88.0907 44.8036 88.403 45.06 88.6228 45.3889C88.8425 45.7178 88.9598 46.1044 88.9598 46.5C88.9599 47.027 88.7519 47.5327 88.3811 47.9072C88.0104 48.2817 87.5068 48.4947 86.9798 48.5H86.9598ZM94.8098 48.5C94.4143 48.5 94.0276 48.3827 93.6987 48.163C93.3698 47.9432 93.1135 47.6308 92.9621 47.2654C92.8107 46.8999 92.7711 46.4978 92.8483 46.1098C92.9254 45.7218 93.1159 45.3655 93.3956 45.0858C93.6753 44.8061 94.0317 44.6156 94.4197 44.5385C94.8076 44.4613 95.2098 44.5009 95.5752 44.6522C95.9407 44.8036 96.253 45.06 96.4728 45.3889C96.6925 45.7178 96.8098 46.1044 96.8098 46.5C96.8099 47.027 96.6019 47.5327 96.2311 47.9072C95.8604 48.2817 95.3568 48.4947 94.8298 48.5H94.8098ZM102.65 48.5C102.254 48.5 101.868 48.3827 101.539 48.163C101.21 47.9432 100.953 47.6308 100.802 47.2654C100.651 46.8999 100.611 46.4978 100.688 46.1098C100.765 45.7218 100.956 45.3655 101.236 45.0858C101.515 44.8061 101.872 44.6156 102.26 44.5385C102.648 44.4613 103.05 44.5009 103.415 44.6522C103.781 44.8036 104.093 45.06 104.313 45.3889C104.533 45.7178 104.65 46.1044 104.65 46.5C104.65 47.0304 104.439 47.5391 104.064 47.9142C103.689 48.2893 103.18 48.5 102.65 48.5ZM110.5 48.5C110.104 48.5 109.718 48.3827 109.389 48.163C109.06 47.9432 108.803 47.6308 108.652 47.2654C108.501 46.8999 108.461 46.4978 108.538 46.1098C108.615 45.7218 108.806 45.3655 109.086 45.0858C109.365 44.8061 109.722 44.6156 110.11 44.5385C110.498 44.4613 110.9 44.5009 111.265 44.6522C111.631 44.8036 111.943 45.06 112.163 45.3889C112.383 45.7178 112.5 46.1044 112.5 46.5C112.5 47.027 112.292 47.5327 111.921 47.9072C111.55 48.2817 111.047 48.4947 110.52 48.5H110.5ZM118.35 48.5C117.954 48.5 117.568 48.3827 117.239 48.163C116.91 47.9432 116.653 47.6308 116.502 47.2654C116.351 46.8999 116.311 46.4978 116.388 46.1098C116.465 45.7218 116.656 45.3655 116.936 45.0858C117.215 44.8061 117.572 44.6156 117.96 44.5385C118.348 44.4613 118.75 44.5009 119.115 44.6522C119.481 44.8036 119.793 45.06 120.013 45.3889C120.233 45.7178 120.35 46.1044 120.35 46.5C120.35 47.027 120.142 47.5327 119.771 47.9072C119.4 48.2817 118.897 48.4947 118.37 48.5H118.35ZM126.19 48.5C125.794 48.5 125.408 48.3827 125.079 48.163C124.75 47.9432 124.493 47.6308 124.342 47.2654C124.191 46.8999 124.151 46.4978 124.228 46.1098C124.305 45.7218 124.496 45.3655 124.776 45.0858C125.055 44.8061 125.412 44.6156 125.8 44.5385C126.188 44.4613 126.59 44.5009 126.955 44.6522C127.321 44.8036 127.633 45.06 127.853 45.3889C128.073 45.7178 128.19 46.1044 128.19 46.5C128.19 47.027 127.982 47.5327 127.611 47.9072C127.24 48.2817 126.737 48.4947 126.21 48.5H126.19ZM134.04 48.5C133.644 48.5 133.258 48.3827 132.929 48.163C132.6 47.9432 132.343 47.6308 132.192 47.2654C132.041 46.8999 132.001 46.4978 132.078 46.1098C132.155 45.7218 132.346 45.3655 132.626 45.0858C132.905 44.8061 133.262 44.6156 133.65 44.5385C134.038 44.4613 134.44 44.5009 134.805 44.6522C135.171 44.8036 135.483 45.06 135.703 45.3889C135.923 45.7178 136.04 46.1044 136.04 46.5C136.04 47.027 135.832 47.5327 135.461 47.9072C135.09 48.2817 134.587 48.4947 134.06 48.5H134.04ZM141.88 48.5C141.484 48.5 141.098 48.3827 140.769 48.163C140.44 47.9432 140.183 47.6308 140.032 47.2654C139.881 46.8999 139.841 46.4978 139.918 46.1098C139.995 45.7218 140.186 45.3655 140.466 45.0858C140.745 44.8061 141.102 44.6156 141.49 44.5385C141.878 44.4613 142.28 44.5009 142.645 44.6522C143.011 44.8036 143.323 45.06 143.543 45.3889C143.763 45.7178 143.88 46.1044 143.88 46.5C143.88 47.027 143.672 47.5327 143.301 47.9072C142.93 48.2817 142.427 48.4947 141.9 48.5H141.88ZM149.73 48.5C149.334 48.5 148.948 48.3827 148.619 48.163C148.29 47.9432 148.033 47.6308 147.882 47.2654C147.731 46.8999 147.691 46.4978 147.768 46.1098C147.845 45.7218 148.036 45.3655 148.316 45.0858C148.595 44.8061 148.952 44.6156 149.34 44.5385C149.728 44.4613 150.13 44.5009 150.495 44.6522C150.861 44.8036 151.173 45.06 151.393 45.3889C151.613 45.7178 151.73 46.1044 151.73 46.5C151.73 47.027 151.522 47.5327 151.151 47.9072C150.78 48.2817 150.277 48.4947 149.75 48.5H149.73ZM157.58 48.5C157.184 48.5 156.798 48.3827 156.469 48.163C156.14 47.9432 155.883 47.6308 155.732 47.2654C155.581 46.8999 155.541 46.4978 155.618 46.1098C155.695 45.7218 155.886 45.3655 156.166 45.0858C156.445 44.8061 156.802 44.6156 157.19 44.5385C157.578 44.4613 157.98 44.5009 158.345 44.6522C158.711 44.8036 159.023 45.06 159.243 45.3889C159.463 45.7178 159.58 46.1044 159.58 46.5C159.58 47.0185 159.379 47.5169 159.019 47.89C158.659 48.2631 158.168 48.4819 157.65 48.5H157.58ZM165.42 48.5C165.024 48.5 164.638 48.3827 164.309 48.163C163.98 47.9432 163.723 47.6308 163.572 47.2654C163.421 46.8999 163.381 46.4978 163.458 46.1098C163.535 45.7218 163.726 45.3655 164.006 45.0858C164.285 44.8061 164.642 44.6156 165.03 44.5385C165.418 44.4613 165.82 44.5009 166.185 44.6522C166.551 44.8036 166.863 45.06 167.083 45.3889C167.303 45.7178 167.42 46.1044 167.42 46.5C167.42 47.027 167.212 47.5327 166.841 47.9072C166.47 48.2817 165.967 48.4947 165.44 48.5H165.42ZM173.27 48.5C172.874 48.5 172.488 48.3827 172.159 48.163C171.83 47.9432 171.573 47.6308 171.422 47.2654C171.271 46.8999 171.231 46.4978 171.308 46.1098C171.385 45.7218 171.576 45.3655 171.856 45.0858C172.135 44.8061 172.492 44.6156 172.88 44.5385C173.268 44.4613 173.67 44.5009 174.035 44.6522C174.401 44.8036 174.713 45.06 174.933 45.3889C175.153 45.7178 175.27 46.1044 175.27 46.5C175.27 47.027 175.062 47.5327 174.691 47.9072C174.32 48.2817 173.817 48.4947 173.29 48.5H173.27ZM181.12 48.5C180.724 48.5 180.338 48.3827 180.009 48.163C179.68 47.9432 179.423 47.6308 179.272 47.2654C179.121 46.8999 179.081 46.4978 179.158 46.1098C179.235 45.7218 179.426 45.3655 179.706 45.0858C179.985 44.8061 180.342 44.6156 180.73 44.5385C181.118 44.4613 181.52 44.5009 181.885 44.6522C182.251 44.8036 182.563 45.06 182.783 45.3889C183.003 45.7178 183.12 46.1044 183.12 46.5C183.12 47.027 182.912 47.5327 182.541 47.9072C182.17 48.2817 181.667 48.4947 181.14 48.5H181.12ZM188.96 48.5C188.564 48.5 188.178 48.3827 187.849 48.163C187.52 47.9432 187.263 47.6308 187.112 47.2654C186.961 46.8999 186.921 46.4978 186.998 46.1098C187.075 45.7218 187.266 45.3655 187.546 45.0858C187.825 44.8061 188.182 44.6156 188.57 44.5385C188.958 44.4613 189.36 44.5009 189.725 44.6522C190.091 44.8036 190.403 45.06 190.623 45.3889C190.843 45.7178 190.96 46.1044 190.96 46.5C190.96 47.027 190.752 47.5327 190.381 47.9072C190.01 48.2817 189.507 48.4947 188.98 48.5H188.96ZM196.81 48.5C196.414 48.5 196.028 48.3827 195.699 48.163C195.37 47.9432 195.113 47.6308 194.962 47.2654C194.811 46.8999 194.771 46.4978 194.848 46.1098C194.925 45.7218 195.116 45.3655 195.396 45.0858C195.675 44.8061 196.032 44.6156 196.42 44.5385C196.808 44.4613 197.21 44.5009 197.575 44.6522C197.941 44.8036 198.253 45.06 198.473 45.3889C198.693 45.7178 198.81 46.1044 198.81 46.5C198.81 47.027 198.602 47.5327 198.231 47.9072C197.86 48.2817 197.357 48.4947 196.83 48.5H196.81Z" fill="#141414" stroke="#008269" stroke-opacity="0.67" stroke-width="2" mask="url(#path-1-inside-1_1701_23569)"/>
</svg>
