<svg width="334" height="165" viewBox="0 0 334 165" fill="none" xmlns="http://www.w3.org/2000/svg">
<g opacity="0.5">
<g clip-path="url(#clip0_691_53317)">
<path d="M212.629 147.354C209.905 144.535 207.345 141.573 205.134 138.307C203.395 135.732 201.601 133.173 200.531 130.188C197.166 120.83 194.069 111.373 190.909 101.938C190.548 100.811 189.976 99.7694 189.227 98.8739C186.539 95.7191 181.693 94.6498 178.275 98.3474C177.621 99.0549 176.909 99.7044 176.222 100.377C175.599 101.01 174.766 101.367 173.896 101.375C172.675 101.395 171.45 101.451 170.236 101.46C167.992 101.479 166.6 100.045 166.566 97.7025C166.523 94.809 166.486 91.9156 166.453 89.0221C166.461 88.2123 166.362 87.4052 166.159 86.6235C165.8 85.3093 165.117 84.1159 164.179 83.1618C163.241 82.2077 162.08 81.526 160.812 81.1844C159.543 80.8427 158.211 80.8531 156.947 81.2143C155.684 81.5756 154.533 82.2751 153.608 83.2437C147.29 89.7389 141.043 96.3269 134.77 102.878C134.039 103.632 133.432 104.508 132.975 105.469C131.15 109.366 131.926 113.613 135.075 116.898C148.667 131.079 162.258 145.26 175.849 159.439C176.071 159.671 176.367 159.871 176.54 160.337H135.092C134.761 160.337 134.425 160.337 134.096 160.353C133.565 160.386 133.066 160.628 132.699 161.029C132.332 161.431 132.124 161.962 132.118 162.517C132.111 163.072 132.306 163.609 132.664 164.019C133.022 164.43 133.515 164.684 134.045 164.731C134.376 164.763 134.712 164.756 135.044 164.756H205.619C205.982 164.756 206.342 164.756 206.702 164.74C210.283 164.508 212.976 162.759 214.69 159.493C216.774 155.517 215.969 150.81 212.629 147.354ZM164.076 122.853C164.636 116.954 165.165 111.052 165.706 105.151C165.719 105.01 165.755 104.87 165.792 104.673C168.728 106.485 171.895 105.861 174.995 105.701C176.563 105.62 177.899 104.794 179.053 103.692C179.795 102.988 180.522 102.275 181.237 101.553C182.689 100.094 184.299 100.089 185.787 101.553C186.302 102.083 186.683 102.737 186.899 103.458C187.813 106.216 188.72 108.974 189.672 111.716C189.877 112.305 189.723 112.493 189.212 112.699C186.766 113.688 184.319 114.72 181.873 115.734C180.528 116.293 179.941 117.427 180.37 118.654C180.815 119.932 182.02 120.443 183.381 119.888C185.805 118.9 188.229 117.912 190.631 116.873C191.207 116.622 191.373 116.777 191.549 117.32C192.136 119.127 192.734 120.927 193.386 122.709C193.608 123.326 193.464 123.544 192.901 123.762C191.215 124.414 189.55 125.128 187.88 125.827C186.51 126.4 185.936 127.599 186.419 128.842C186.883 130.042 188.093 130.51 189.419 129.972C191.095 129.293 192.767 128.597 194.433 127.884C194.86 127.701 195.1 127.652 195.281 128.23C197.433 135.398 201.507 141.334 206.273 146.822C206.326 146.885 206.371 146.959 206.602 147.286C205.661 147.286 204.923 147.286 204.185 147.286C198.889 147.382 193.593 147.484 188.298 147.593C187.98 147.616 187.661 147.567 187.362 147.45C187.064 147.333 186.793 147.151 186.568 146.915C186.001 146.319 185.427 145.732 184.857 145.138L164.621 124.029C164.314 123.697 164.033 123.416 164.076 122.853ZM143.094 100.451C147.528 95.8722 151.929 91.2583 156.346 86.6607C157.578 85.3802 158.919 85.0369 160.264 85.7026C161.609 86.3684 162.161 87.4911 162.214 88.9711C162.349 93.3947 162.18 97.8227 161.71 102.221C161.178 107.51 160.74 112.811 160.26 118.107C160.228 118.445 160.282 118.803 160.071 119.116C159.775 119.035 159.626 118.772 159.439 118.573C154.004 112.91 148.567 107.249 143.129 101.59C142.716 101.159 142.625 100.938 143.094 100.451ZM206.237 160.351C204.434 160.367 202.63 160.351 200.827 160.351H195.501C192.005 160.351 188.509 160.332 185.013 160.351C184.292 160.372 183.576 160.235 182.909 159.948C182.242 159.662 181.641 159.232 181.144 158.688C166.775 143.676 152.401 128.675 138.021 113.685C135.673 111.236 135.664 108.246 137.992 105.798C138.499 105.267 139 104.406 139.562 104.348C140.125 104.29 140.623 105.244 141.119 105.77C154.701 119.925 168.277 134.084 181.846 148.247C182.2 148.616 182.531 149.005 182.863 149.393C184.348 151.125 186.181 152.07 188.422 152.028C195.496 151.898 202.568 151.768 209.64 151.596C210.376 151.578 210.732 151.828 211.021 152.494C211.401 153.334 211.572 154.261 211.517 155.188C211.461 156.115 211.182 157.013 210.705 157.797C210.227 158.582 209.567 159.227 208.786 159.674C208.005 160.12 207.128 160.353 206.237 160.351Z" fill="#0AEABF"/>
<path d="M206.237 160.347C204.433 160.363 202.63 160.347 200.826 160.347H195.5C192.004 160.347 188.508 160.328 185.013 160.347C184.292 160.368 183.575 160.231 182.908 159.944C182.242 159.658 181.64 159.228 181.143 158.684C166.774 143.672 152.4 128.671 138.021 113.681C135.672 111.232 135.663 108.241 137.992 105.794C138.499 105.263 138.999 104.402 139.562 104.344C140.124 104.286 140.623 105.24 141.118 105.766C154.7 119.921 168.276 134.08 181.846 148.243C182.199 148.611 182.531 149.001 182.862 149.389C184.348 151.121 186.18 152.065 188.422 152.024C195.496 151.894 202.568 151.764 209.639 151.592C210.375 151.574 210.731 151.824 211.02 152.49C211.401 153.33 211.572 154.257 211.516 155.184C211.461 156.111 211.181 157.009 210.704 157.793C210.226 158.578 209.566 159.223 208.785 159.669C208.004 160.116 207.128 160.349 206.237 160.347Z" fill="#0E8170"/>
<path d="M161.71 102.218C161.178 107.507 160.74 112.807 160.26 118.103C160.228 118.442 160.282 118.799 160.071 119.112C159.775 119.031 159.626 118.769 159.439 118.57C154.004 112.906 148.567 107.246 143.129 101.587C142.716 101.156 142.625 100.935 143.094 100.448C147.528 95.8689 151.929 91.255 156.346 86.6573C157.578 85.3768 158.919 85.0335 160.264 85.6993C161.609 86.365 162.161 87.4877 162.214 88.9677C162.349 93.3914 162.18 97.8194 161.71 102.218Z" fill="#036556"/>
<path d="M206.609 147.278C205.668 147.278 204.93 147.278 204.191 147.278C198.896 147.374 193.6 147.476 188.304 147.584C187.986 147.607 187.667 147.559 187.369 147.442C187.07 147.325 186.799 147.142 186.574 146.907C186.007 146.311 185.433 145.724 184.864 145.13L164.627 124.02C164.314 123.696 164.022 123.415 164.076 122.861C164.636 116.961 165.165 111.06 165.706 105.159C165.719 105.017 165.755 104.878 165.792 104.681C168.728 106.493 171.895 105.869 174.995 105.709C176.563 105.627 177.899 104.802 179.053 103.7C179.795 102.996 180.522 102.283 181.237 101.561C182.689 100.102 184.299 100.097 185.787 101.561C186.302 102.091 186.683 102.745 186.899 103.465C187.813 106.224 188.72 108.982 189.672 111.724C189.877 112.313 189.723 112.501 189.212 112.707C186.765 113.695 184.319 114.728 181.873 115.741C180.528 116.3 179.941 117.435 180.37 118.662C180.815 119.94 182.02 120.45 183.381 119.896C185.805 118.908 188.229 117.92 190.631 116.88C191.207 116.63 191.373 116.785 191.549 117.328C192.136 119.135 192.734 120.935 193.386 122.717C193.608 123.334 193.464 123.552 192.901 123.77C191.215 124.422 189.55 125.136 187.88 125.834C186.51 126.407 185.936 127.607 186.419 128.85C186.883 130.049 188.093 130.518 189.419 129.98C191.095 129.301 192.767 128.605 194.433 127.892C194.86 127.709 195.1 127.66 195.281 128.238C197.433 135.406 201.507 141.342 206.273 146.83C206.333 146.883 206.377 146.958 206.609 147.278Z" fill="#036556"/>
<path d="M144.92 153.98C141.426 153.98 137.93 153.98 134.436 153.98C133.053 153.98 132.141 153.099 132.124 151.813C132.111 151.259 132.302 150.72 132.658 150.306C133.013 149.893 133.506 149.636 134.036 149.589C134.23 149.57 134.423 149.57 134.619 149.57C141.524 149.57 148.429 149.57 155.334 149.57C156.81 149.57 157.702 150.31 157.796 151.57C157.9 152.962 157.008 153.968 155.572 153.978C152.236 153.996 148.916 153.978 145.587 153.978L144.92 153.98Z" fill="#0AEABF"/>
</g>
<mask id="path-6-inside-1_691_53317" fill="white">
<path fill-rule="evenodd" clip-rule="evenodd" d="M7.22651 0C3.23542 0 0 3.23541 0 7.2265V42.3267C0 46.3178 3.23541 49.5532 7.2265 49.5532H156.068L166.691 64.0112L177.315 49.5532H326.153C330.144 49.5532 333.38 46.3178 333.38 42.3267V7.22651C333.38 3.23542 330.144 0 326.153 0H7.22651Z"/>
</mask>
<path fill-rule="evenodd" clip-rule="evenodd" d="M7.22651 0C3.23542 0 0 3.23541 0 7.2265V42.3267C0 46.3178 3.23541 49.5532 7.2265 49.5532H156.068L166.691 64.0112L177.315 49.5532H326.153C330.144 49.5532 333.38 46.3178 333.38 42.3267V7.22651C333.38 3.23542 330.144 0 326.153 0H7.22651Z" fill="#0E8170"/>
<path d="M156.068 49.5532L158.979 47.4137L157.896 45.9399H156.068V49.5532ZM166.691 64.0112L163.78 66.1507L166.691 70.1133L169.603 66.1507L166.691 64.0112ZM177.315 49.5532V45.9399H175.487L174.404 47.4137L177.315 49.5532ZM3.61325 7.2265C3.61325 5.23096 5.23096 3.61325 7.22651 3.61325V-3.61325C1.23988 -3.61325 -3.61325 1.23987 -3.61325 7.2265H3.61325ZM3.61325 42.3267V7.2265H-3.61325V42.3267H3.61325ZM7.2265 45.9399C5.23096 45.9399 3.61325 44.3222 3.61325 42.3267H-3.61325C-3.61325 48.3133 1.23986 53.1665 7.2265 53.1665V45.9399ZM156.068 45.9399H7.2265V53.1665H156.068V45.9399ZM169.603 61.8717L158.979 47.4137L153.156 51.6927L163.78 66.1507L169.603 61.8717ZM174.404 47.4137L163.78 61.8717L169.603 66.1507L180.227 51.6927L174.404 47.4137ZM326.153 45.9399H177.315V53.1665H326.153V45.9399ZM329.767 42.3267C329.767 44.3222 328.149 45.9399 326.153 45.9399V53.1665C332.14 53.1665 336.993 48.3133 336.993 42.3267H329.767ZM329.767 7.22651V42.3267H336.993V7.22651H329.767ZM326.153 3.61325C328.149 3.61325 329.767 5.23096 329.767 7.22651H336.993C336.993 1.23988 332.14 -3.61325 326.153 -3.61325V3.61325ZM7.22651 3.61325H326.153V-3.61325H7.22651V3.61325Z" fill="#0CDFC2" fill-opacity="0.25" mask="url(#path-6-inside-1_691_53317)"/>
<path d="M92.4141 32.7031C91.3724 33.599 90.2057 34.2865 88.9141 34.7656C87.6224 35.2448 86.2839 35.4844 84.8984 35.4844C83.8359 35.4844 82.8099 35.3438 81.8203 35.0625C80.8411 34.7917 79.9193 34.4062 79.0547 33.9062C78.2005 33.3958 77.4193 32.7865 76.7109 32.0781C76.0026 31.3698 75.3932 30.5885 74.8828 29.7344C74.3828 28.8698 73.9922 27.9479 73.7109 26.9688C73.4401 25.9792 73.3047 24.9531 73.3047 23.8906C73.3047 22.8281 73.4401 21.8021 73.7109 20.8125C73.9922 19.8229 74.3828 18.901 74.8828 18.0469C75.3932 17.1823 76.0026 16.3958 76.7109 15.6875C77.4193 14.9792 78.2005 14.375 79.0547 13.875C79.9193 13.3646 80.8411 12.974 81.8203 12.7031C82.8099 12.4219 83.8359 12.2812 84.8984 12.2812C86.2839 12.2812 87.6224 12.5208 88.9141 13C90.2057 13.4688 91.3724 14.1562 92.4141 15.0625L90.0391 18.9688C89.3828 18.2604 88.6068 17.7188 87.7109 17.3438C86.8151 16.9583 85.8776 16.7656 84.8984 16.7656C83.9089 16.7656 82.9818 16.9531 82.1172 17.3281C81.2526 17.7031 80.4974 18.2135 79.8516 18.8594C79.2057 19.4948 78.6953 20.25 78.3203 21.125C77.9453 21.9896 77.7578 22.9115 77.7578 23.8906C77.7578 24.8698 77.9453 25.7917 78.3203 26.6562C78.6953 27.5104 79.2057 28.2604 79.8516 28.9062C80.4974 29.5521 81.2526 30.0625 82.1172 30.4375C82.9818 30.8125 83.9089 31 84.8984 31C85.8776 31 86.8151 30.8125 87.7109 30.4375C88.6068 30.0521 89.3828 29.5052 90.0391 28.7969L92.4141 32.7031ZM110.148 26.4844C110.148 27.7344 109.924 28.901 109.477 29.9844C109.029 31.0573 108.419 31.9896 107.648 32.7812C106.878 33.5625 105.971 34.1823 104.93 34.6406C103.898 35.0885 102.789 35.3125 101.602 35.3125C100.424 35.3125 99.3151 35.0885 98.2734 34.6406C97.2422 34.1823 96.3359 33.5625 95.5547 32.7812C94.7839 31.9896 94.1745 31.0573 93.7266 29.9844C93.2786 28.901 93.0547 27.7344 93.0547 26.4844C93.0547 25.2135 93.2786 24.0365 93.7266 22.9531C94.1745 21.8698 94.7839 20.9375 95.5547 20.1562C96.3359 19.3646 97.2422 18.7448 98.2734 18.2969C99.3151 17.849 100.424 17.625 101.602 17.625C102.789 17.625 103.898 17.8385 104.93 18.2656C105.971 18.6823 106.878 19.2812 107.648 20.0625C108.419 20.8333 109.029 21.7656 109.477 22.8594C109.924 23.9427 110.148 25.151 110.148 26.4844ZM105.852 26.4844C105.852 25.7969 105.737 25.1771 105.508 24.625C105.289 24.0625 104.987 23.5833 104.602 23.1875C104.216 22.7812 103.763 22.474 103.242 22.2656C102.732 22.0469 102.185 21.9375 101.602 21.9375C101.018 21.9375 100.466 22.0469 99.9453 22.2656C99.4349 22.474 98.987 22.7812 98.6016 23.1875C98.2266 23.5833 97.9297 24.0625 97.7109 24.625C97.4922 25.1771 97.3828 25.7969 97.3828 26.4844C97.3828 27.1302 97.4922 27.7292 97.7109 28.2812C97.9297 28.8333 98.2266 29.3125 98.6016 29.7188C98.987 30.125 99.4349 30.4479 99.9453 30.6875C100.466 30.9167 101.018 31.0312 101.602 31.0312C102.185 31.0312 102.732 30.9219 103.242 30.7031C103.763 30.4844 104.216 30.1771 104.602 29.7812C104.987 29.3854 105.289 28.9062 105.508 28.3438C105.737 27.7812 105.852 27.1615 105.852 26.4844ZM133.789 35H129.539V24.375C129.539 24.0833 129.482 23.8073 129.367 23.5469C129.263 23.2865 129.112 23.0573 128.914 22.8594C128.716 22.6615 128.487 22.5104 128.227 22.4062C127.966 22.2917 127.69 22.2344 127.398 22.2344C127.107 22.2344 126.831 22.2917 126.57 22.4062C126.32 22.5104 126.096 22.6615 125.898 22.8594C125.711 23.0573 125.56 23.2865 125.445 23.5469C125.341 23.8073 125.289 24.0833 125.289 24.375V35H121.023V24.375C121.023 24.0833 120.966 23.8073 120.852 23.5469C120.747 23.2865 120.596 23.0573 120.398 22.8594C120.201 22.6615 119.971 22.5104 119.711 22.4062C119.451 22.2917 119.174 22.2344 118.883 22.2344C118.591 22.2344 118.315 22.2917 118.055 22.4062C117.805 22.5104 117.581 22.6615 117.383 22.8594C117.195 23.0573 117.044 23.2865 116.93 23.5469C116.826 23.8073 116.773 24.0833 116.773 24.375V35H112.508V18.2656H113.539L114.695 19.5469C115.289 19.0469 115.94 18.6615 116.648 18.3906C117.367 18.1094 118.112 17.9688 118.883 17.9688C119.664 17.9688 120.424 18.1146 121.164 18.4062C121.914 18.6979 122.57 19.2031 123.133 19.9219C123.393 19.5677 123.69 19.2656 124.023 19.0156C124.357 18.7656 124.706 18.5625 125.07 18.4062C125.445 18.25 125.831 18.1406 126.227 18.0781C126.622 18.0052 127.013 17.9688 127.398 17.9688C128.284 17.9688 129.112 18.1354 129.883 18.4688C130.664 18.8021 131.341 19.2604 131.914 19.8438C132.497 20.4167 132.956 21.0938 133.289 21.875C133.622 22.6562 133.789 23.4896 133.789 24.375V35ZM141.945 13.7188C141.945 14.1146 141.867 14.4844 141.711 14.8281C141.565 15.1719 141.362 15.474 141.102 15.7344C140.841 15.9844 140.534 16.1875 140.18 16.3438C139.836 16.4896 139.466 16.5625 139.07 16.5625C138.674 16.5625 138.299 16.4896 137.945 16.3438C137.602 16.1875 137.299 15.9844 137.039 15.7344C136.789 15.474 136.586 15.1719 136.43 14.8281C136.284 14.4844 136.211 14.1146 136.211 13.7188C136.211 13.3333 136.284 12.9688 136.43 12.625C136.586 12.2708 136.789 11.9688 137.039 11.7188C137.299 11.4583 137.602 11.2552 137.945 11.1094C138.299 10.9531 138.674 10.875 139.07 10.875C139.466 10.875 139.836 10.9531 140.18 11.1094C140.534 11.2552 140.841 11.4583 141.102 11.7188C141.362 11.9688 141.565 12.2708 141.711 12.625C141.867 12.9688 141.945 13.3333 141.945 13.7188ZM141.211 35H136.914V18.2656H141.211V35ZM148.742 35H144.477V18.2656H145.508L146.914 19.8906C147.602 19.2656 148.378 18.7865 149.242 18.4531C150.117 18.1094 151.029 17.9375 151.977 17.9375C152.997 17.9375 153.961 18.1354 154.867 18.5312C155.773 18.9167 156.565 19.4531 157.242 20.1406C157.919 20.8177 158.451 21.6146 158.836 22.5312C159.232 23.4375 159.43 24.4062 159.43 25.4375V35H155.164V25.4375C155.164 25 155.081 24.5885 154.914 24.2031C154.747 23.8073 154.518 23.4635 154.227 23.1719C153.935 22.8802 153.596 22.651 153.211 22.4844C152.826 22.3177 152.414 22.2344 151.977 22.2344C151.529 22.2344 151.107 22.3177 150.711 22.4844C150.315 22.651 149.971 22.8802 149.68 23.1719C149.388 23.4635 149.159 23.8073 148.992 24.2031C148.826 24.5885 148.742 25 148.742 25.4375V35ZM174.383 26.4844C174.383 25.901 174.268 25.3385 174.039 24.7969C173.82 24.2448 173.518 23.7604 173.133 23.3438C172.747 22.9167 172.294 22.5781 171.773 22.3281C171.263 22.0677 170.716 21.9375 170.133 21.9375C169.549 21.9375 168.997 22.0365 168.477 22.2344C167.966 22.4323 167.518 22.724 167.133 23.1094C166.758 23.4948 166.461 23.974 166.242 24.5469C166.023 25.1094 165.914 25.7552 165.914 26.4844C165.914 27.1823 166.023 27.8125 166.242 28.375C166.461 28.9271 166.758 29.401 167.133 29.7969C167.518 30.1927 167.966 30.5 168.477 30.7188C168.997 30.9271 169.549 31.0312 170.133 31.0312C170.716 31.0312 171.263 30.9062 171.773 30.6562C172.294 30.3958 172.747 30.0573 173.133 29.6406C173.518 29.2135 173.82 28.7292 174.039 28.1875C174.268 27.6354 174.383 27.0677 174.383 26.4844ZM178.68 32.8906C178.68 34.0677 178.456 35.1719 178.008 36.2031C177.56 37.2344 176.945 38.1354 176.164 38.9062C175.393 39.6771 174.487 40.2865 173.445 40.7344C172.414 41.1823 171.31 41.4062 170.133 41.4062L167.992 41.375V37.1094L170.102 37.1406C170.768 37.1406 171.336 37.0521 171.805 36.875C172.273 36.7083 172.669 36.474 172.992 36.1719C173.315 35.8802 173.57 35.5417 173.758 35.1562C173.956 34.7708 174.112 34.3646 174.227 33.9375C174.06 34.2083 173.82 34.4323 173.508 34.6094C173.195 34.776 172.846 34.9115 172.461 35.0156C172.086 35.1302 171.69 35.2083 171.273 35.25C170.867 35.2917 170.487 35.3125 170.133 35.3125C168.956 35.3125 167.846 35.1094 166.805 34.7031C165.773 34.2969 164.867 33.7188 164.086 32.9688C163.315 32.2083 162.706 31.2812 162.258 30.1875C161.81 29.0938 161.586 27.8594 161.586 26.4844C161.586 25.224 161.81 24.0521 162.258 22.9688C162.706 21.8854 163.315 20.9479 164.086 20.1562C164.867 19.3646 165.773 18.7448 166.805 18.2969C167.846 17.849 168.956 17.625 170.133 17.625C170.674 17.625 171.211 17.6927 171.742 17.8281C172.273 17.9635 172.789 18.151 173.289 18.3906C173.789 18.6302 174.263 18.9115 174.711 19.2344C175.169 19.5573 175.596 19.9062 175.992 20.2812L177.648 18.2969H178.68V32.8906ZM190.055 19.3125C190.055 18.3854 190.232 17.5156 190.586 16.7031C190.94 15.8906 191.419 15.1823 192.023 14.5781C192.638 13.9635 193.352 13.4792 194.164 13.125C194.977 12.7708 195.846 12.5938 196.773 12.5938H207.055V17.0781H196.773C196.461 17.0781 196.169 17.1354 195.898 17.25C195.628 17.3646 195.388 17.526 195.18 17.7344C194.982 17.9323 194.826 18.1667 194.711 18.4375C194.596 18.7083 194.539 19 194.539 19.3125C194.539 19.625 194.596 19.9219 194.711 20.2031C194.826 20.474 194.982 20.7135 195.18 20.9219C195.388 21.1198 195.628 21.276 195.898 21.3906C196.169 21.5052 196.461 21.5625 196.773 21.5625H201.258C202.185 21.5625 203.055 21.7396 203.867 22.0938C204.69 22.4375 205.404 22.9167 206.008 23.5312C206.622 24.1354 207.102 24.849 207.445 25.6719C207.799 26.4844 207.977 27.3542 207.977 28.2812C207.977 29.2083 207.799 30.0781 207.445 30.8906C207.102 31.7031 206.622 32.4167 206.008 33.0312C205.404 33.6354 204.69 34.1146 203.867 34.4688C203.055 34.8229 202.185 35 201.258 35H191.305V30.5156H201.258C201.57 30.5156 201.862 30.4583 202.133 30.3438C202.404 30.2292 202.638 30.0729 202.836 29.875C203.044 29.6667 203.206 29.4271 203.32 29.1562C203.435 28.8854 203.492 28.5938 203.492 28.2812C203.492 27.9688 203.435 27.6771 203.32 27.4062C203.206 27.1354 203.044 26.901 202.836 26.7031C202.638 26.4948 202.404 26.3333 202.133 26.2188C201.862 26.1042 201.57 26.0469 201.258 26.0469H196.773C195.846 26.0469 194.977 25.8698 194.164 25.5156C193.352 25.1615 192.638 24.6823 192.023 24.0781C191.419 23.4635 190.94 22.75 190.586 21.9375C190.232 21.1146 190.055 20.2396 190.055 19.3125ZM226.648 26.4844C226.648 27.7344 226.424 28.901 225.977 29.9844C225.529 31.0573 224.919 31.9896 224.148 32.7812C223.378 33.5625 222.471 34.1823 221.43 34.6406C220.398 35.0885 219.289 35.3125 218.102 35.3125C216.924 35.3125 215.815 35.0885 214.773 34.6406C213.742 34.1823 212.836 33.5625 212.055 32.7812C211.284 31.9896 210.674 31.0573 210.227 29.9844C209.779 28.901 209.555 27.7344 209.555 26.4844C209.555 25.2135 209.779 24.0365 210.227 22.9531C210.674 21.8698 211.284 20.9375 212.055 20.1562C212.836 19.3646 213.742 18.7448 214.773 18.2969C215.815 17.849 216.924 17.625 218.102 17.625C219.289 17.625 220.398 17.8385 221.43 18.2656C222.471 18.6823 223.378 19.2812 224.148 20.0625C224.919 20.8333 225.529 21.7656 225.977 22.8594C226.424 23.9427 226.648 25.151 226.648 26.4844ZM222.352 26.4844C222.352 25.7969 222.237 25.1771 222.008 24.625C221.789 24.0625 221.487 23.5833 221.102 23.1875C220.716 22.7812 220.263 22.474 219.742 22.2656C219.232 22.0469 218.685 21.9375 218.102 21.9375C217.518 21.9375 216.966 22.0469 216.445 22.2656C215.935 22.474 215.487 22.7812 215.102 23.1875C214.727 23.5833 214.43 24.0625 214.211 24.625C213.992 25.1771 213.883 25.7969 213.883 26.4844C213.883 27.1302 213.992 27.7292 214.211 28.2812C214.43 28.8333 214.727 29.3125 215.102 29.7188C215.487 30.125 215.935 30.4479 216.445 30.6875C216.966 30.9167 217.518 31.0312 218.102 31.0312C218.685 31.0312 219.232 30.9219 219.742 30.7031C220.263 30.4844 220.716 30.1771 221.102 29.7812C221.487 29.3854 221.789 28.9062 222.008 28.3438C222.237 27.7812 222.352 27.1615 222.352 26.4844ZM245.18 26.4844C245.18 27.7344 244.956 28.901 244.508 29.9844C244.06 31.0573 243.451 31.9896 242.68 32.7812C241.909 33.5625 241.003 34.1823 239.961 34.6406C238.93 35.0885 237.82 35.3125 236.633 35.3125C235.456 35.3125 234.346 35.0885 233.305 34.6406C232.273 34.1823 231.367 33.5625 230.586 32.7812C229.815 31.9896 229.206 31.0573 228.758 29.9844C228.31 28.901 228.086 27.7344 228.086 26.4844C228.086 25.2135 228.31 24.0365 228.758 22.9531C229.206 21.8698 229.815 20.9375 230.586 20.1562C231.367 19.3646 232.273 18.7448 233.305 18.2969C234.346 17.849 235.456 17.625 236.633 17.625C237.82 17.625 238.93 17.8385 239.961 18.2656C241.003 18.6823 241.909 19.2812 242.68 20.0625C243.451 20.8333 244.06 21.7656 244.508 22.8594C244.956 23.9427 245.18 25.151 245.18 26.4844ZM240.883 26.4844C240.883 25.7969 240.768 25.1771 240.539 24.625C240.32 24.0625 240.018 23.5833 239.633 23.1875C239.247 22.7812 238.794 22.474 238.273 22.2656C237.763 22.0469 237.216 21.9375 236.633 21.9375C236.049 21.9375 235.497 22.0469 234.977 22.2656C234.466 22.474 234.018 22.7812 233.633 23.1875C233.258 23.5833 232.961 24.0625 232.742 24.625C232.523 25.1771 232.414 25.7969 232.414 26.4844C232.414 27.1302 232.523 27.7292 232.742 28.2812C232.961 28.8333 233.258 29.3125 233.633 29.7188C234.018 30.125 234.466 30.4479 234.977 30.6875C235.497 30.9167 236.049 31.0312 236.633 31.0312C237.216 31.0312 237.763 30.9219 238.273 30.7031C238.794 30.4844 239.247 30.1771 239.633 29.7812C240.018 29.3854 240.32 28.9062 240.539 28.3438C240.768 27.7812 240.883 27.1615 240.883 26.4844ZM251.805 35H247.539V18.2656H248.57L249.977 19.8906C250.664 19.2656 251.44 18.7865 252.305 18.4531C253.18 18.1094 254.091 17.9375 255.039 17.9375C256.06 17.9375 257.023 18.1354 257.93 18.5312C258.836 18.9167 259.628 19.4531 260.305 20.1406C260.982 20.8177 261.513 21.6146 261.898 22.5312C262.294 23.4375 262.492 24.4062 262.492 25.4375V35H258.227V25.4375C258.227 25 258.143 24.5885 257.977 24.2031C257.81 23.8073 257.581 23.4635 257.289 23.1719C256.997 22.8802 256.659 22.651 256.273 22.4844C255.888 22.3177 255.477 22.2344 255.039 22.2344C254.591 22.2344 254.169 22.3177 253.773 22.4844C253.378 22.651 253.034 22.8802 252.742 23.1719C252.451 23.4635 252.221 23.8073 252.055 24.2031C251.888 24.5885 251.805 25 251.805 25.4375V35Z" fill="white"/>
</g>
<defs>
<clipPath id="clip0_691_53317">
<rect width="83.8275" height="83.8275" fill="white" transform="translate(132.004 80.9355)"/>
</clipPath>
</defs>
</svg>
