<svg width="45" height="45" viewBox="0 0 45 45" fill="none" xmlns="http://www.w3.org/2000/svg">
<circle cx="22.5" cy="22.5" r="22.5" fill="#33F9DD" fill-opacity="0.6"/>
<g clip-path="url(#clip0_1701_7990)">
<path d="M28.8823 18.2357C28.8975 17.0002 28.907 15.7572 28.8879 15.4735C28.6998 12.6538 26.182 10.2607 23.1548 10.0255C22.9654 10.0109 22.7756 10.0025 22.5914 10.0004C20.9412 9.98407 19.4844 10.4821 18.2621 11.4803C17.0485 12.471 16.2527 13.9308 16.1313 15.3856C16.1092 15.6476 16.1062 16.9617 16.1075 18.2383C14.9047 18.4693 14.001 19.4599 14.001 20.6473V31.5399C14.001 32.8984 15.1847 34 16.645 34H28.3561C29.8164 34 31.0001 32.8984 31.0001 31.5399V20.6469C31.0001 19.4557 30.0903 18.4613 28.8823 18.2357ZM22.4067 12.5341C22.45 12.5341 22.4964 12.5341 22.5406 12.5341C23.8236 12.5467 24.9475 13.1598 25.625 14.2154C26.0038 14.8063 26.1386 16.5403 26.1746 18.1876H18.8243C18.8711 16.5725 19.0007 14.8009 19.3518 14.2493C20.028 13.185 21.1415 12.5601 22.4067 12.5341Z" fill="white"/>
<path fill-rule="evenodd" clip-rule="evenodd" d="M22.662 28.5506C22.3154 28.5503 21.9762 28.4541 21.6845 28.2734C21.3927 28.0927 21.1607 27.8352 21.0158 27.5312C20.8709 27.2272 20.8192 26.8895 20.8668 26.558C20.9144 26.2265 21.0594 25.9152 21.2845 25.6607C21.2217 25.454 21.2096 25.2359 21.2492 25.0239C21.2888 24.8119 21.3791 24.6116 21.5127 24.4391C21.6464 24.2666 21.8198 24.1265 22.0193 24.0299C22.2188 23.9334 22.4388 23.883 22.662 23.8828C23.0428 23.8828 23.4081 24.0289 23.6774 24.2889C23.9467 24.549 24.0979 24.9016 24.0979 25.2694C24.098 25.4018 24.0784 25.5336 24.0399 25.6607C24.2655 25.9151 24.4109 26.2267 24.4588 26.5585C24.5067 26.8903 24.4551 27.2284 24.3101 27.5327C24.1651 27.837 23.9328 28.0948 23.6406 28.2755C23.3485 28.4562 23.0089 28.5523 22.662 28.5523V28.5506Z" fill="#005A42"/>
</g>
<defs>
<clipPath id="clip0_1701_7990">
<rect width="17" height="24" fill="white" transform="translate(14 10)"/>
</clipPath>
</defs>
</svg>
