<svg width="14" height="14" viewBox="0 0 14 14" fill="none" xmlns="http://www.w3.org/2000/svg">
<circle cx="7" cy="7" r="7" fill="#1FD1F9"/>
<path d="M6.84931 6.52676L6.99613 6.67141L7.14342 6.52722C7.29621 6.37763 8.64416 5.05292 8.91679 4.60938C9.09396 4.32123 9.17295 4.03199 9.17295 3.67156C9.17291 2.79472 8.51413 2.33594 7.86336 2.33594C7.50524 2.33594 7.20772 2.45909 6.99827 2.68869C6.83797 2.51332 6.56858 2.33594 6.13486 2.33594C5.36548 2.33594 4.82812 2.88517 4.82812 3.67156C4.82812 4.03043 4.90758 4.31964 5.08568 4.60938C5.35813 5.05271 6.69749 6.37717 6.84931 6.52676Z" fill="white"/>
<path d="M7.15173 7.47472L7.0049 7.33008L6.85762 7.47426C6.70483 7.62386 5.35692 8.94852 5.08425 9.3921C4.90712 9.68025 4.82812 9.96954 4.82812 10.3299C4.82812 11.2068 5.48691 11.6655 6.13768 11.6655C6.49572 11.6655 6.79323 11.5424 7.00272 11.3128C7.16298 11.4882 7.43237 11.6655 7.86613 11.6655C8.63552 11.6655 9.17287 11.1163 9.17287 10.3299C9.17287 9.97113 9.09341 9.68193 8.91532 9.3921C8.64286 8.94877 7.30355 7.62432 7.15173 7.47472Z" fill="white"/>
<path d="M11.3147 7.00214C11.4901 6.84188 11.6675 6.57249 11.6675 6.13873C11.6675 5.36938 11.1183 4.83203 10.3319 4.83203C9.973 4.83203 9.6838 4.91149 9.3941 5.08958C8.95076 5.36204 7.62627 6.70135 7.47667 6.85321L7.33203 7.00004L7.47621 7.14733C7.62581 7.30011 8.95051 8.64807 9.39405 8.92069C9.68212 9.09782 9.97141 9.17682 10.3319 9.17682C11.2088 9.17682 11.6675 8.51808 11.6675 7.86731C11.6675 7.50914 11.5443 7.21163 11.3147 7.00214Z" fill="white"/>
<path d="M6.52481 7.15564L6.66945 7.00881L6.52527 6.86152C6.37568 6.70874 5.05101 5.36078 4.60747 5.08816C4.3194 4.91103 4.03012 4.83203 3.6696 4.83203C2.79276 4.83207 2.33398 5.49082 2.33398 6.14158C2.33398 6.49966 2.45718 6.79718 2.68682 7.00667C2.51141 7.16693 2.33398 7.43632 2.33398 7.87008C2.33398 8.63942 2.88322 9.17678 3.6696 9.17678C4.02852 9.17678 4.31772 9.09732 4.60743 8.91922C5.0508 8.64677 6.37526 7.30746 6.52481 7.15564Z" fill="white"/>
</svg>
