<svg width="14" height="14" viewBox="0 0 14 14" fill="none" xmlns="http://www.w3.org/2000/svg">
<circle cx="7" cy="7" r="7" fill="#721FF9"/>
<path d="M7 11C6.95953 11 6.91907 10.9894 6.88282 10.9682C6.84345 10.9453 5.90797 10.3957 4.95906 9.56775C4.39666 9.07702 3.94772 8.59029 3.62476 8.12111C3.20682 7.51398 2.99665 6.93 3.00004 6.38537C3.00401 5.75162 3.22837 5.15563 3.63184 4.70716C4.04211 4.25113 4.58964 4 5.1736 4C5.92198 4 6.60622 4.42413 7.00001 5.096C7.39381 4.42415 8.07804 4 8.82643 4C9.37811 4 9.90447 4.22659 10.3086 4.63804C10.7521 5.08957 11.0041 5.72755 10.9999 6.38837C10.9965 6.93206 10.7824 7.51515 10.3636 8.12144C10.0396 8.59038 9.5913 9.07689 9.0311 9.56748C8.08566 10.3954 7.1569 10.9449 7.11782 10.9679C7.0814 10.9893 7.04068 11 7 11Z" fill="white"/>
</svg>
